<svg xmlns="http://www.w3.org/2000/svg" viewBox="0 0 100 100">
  <circle cx="50" cy="50" r="50" fill="#f7e8f2"/>
  <g transform="translate(46,54) scale(0.82) translate(-57,-298)">
    <path fill="none" stroke="#48598a" stroke-linejoin="round" stroke-width="7"
      d="M72.44109,276.6756315c-.4941656-.846268-4.8835275-11.2486319-8.0474739-18.4568362-1.157189-2.6363451-4.9361107-2.5636771-5.9906319.1147448-4.1121796,10.4446942-11.024431,28.0421805-14.6444191,37.2134612-1.3983538,3.7771498-5.4037664,11.3392277-1.907148,18.8496637.627412,1.3476271,1.4943632,2.5742836,2.4807575,3.6886254,13.2097386,14.9232038,28.1479006,13.9606576,39.5793852-2.0148321,5.9165632-8.2683918.9933591-17.383227-3.1155146-26.0265226-.8385423-1.7639308-3.036768-2.3939564-4.6860825-1.3400716-6.009371,3.839889-12.5591646,15.2432395-12.5587584,21.5081218"/>
  </g>
</svg>
