<?xml version="1.0" encoding="UTF-8"?>
<svg id="Layer_1" data-name="Layer 1" xmlns="http://www.w3.org/2000/svg" viewBox="20 248 400 140">
  <defs>
    <style>
      .cls-1 {
        fill: #3a3462;
      }

      .cls-2 {
        fill: none;
        stroke: #48598a;
        stroke-linejoin: round;
        stroke-width: 7px;
      }

      .cls-3 {
        fill: #cb9ac6;
      }
    </style>
  </defs>
  <g>
    <path class="cls-3" d="M283.6835938,322.4111328h-2.984375c-.1005859-.4223633-.1513672-.8808594-.1513672-1.3764648,0-.4804688.0507812-.9248047.1513672-1.3330078h6.6464844v11.5366211c0,1.0634766-.2509766,1.9228516-.7519531,2.578125-.5019531.65625-1.1835938,1.1298828-2.0449219,1.4208984s-1.8349609.4365234-2.921875.4365234c-.2841797,0-.6396484-.0214844-1.0664062-.0654297-.4257812-.0439453-.8320312-.109375-1.2158203-.1962891-.0175781-.1015625-.0302734-.2041016-.0380859-.3056641-.0087891-.1025391-.0126953-.2119141-.0126953-.328125,0-.640625.1416016-1.3115234.4267578-2.0107422.1835938.0292969.3847656.0664062.6015625.109375.2177734.0439453.4433594.0654297.6777344.0654297.3837891,0,.78125-.0361328,1.1914062-.1083984.4091797-.0732422.7607422-.2626953,1.0537109-.5683594.2919922-.3056641.4384766-.8007812.4384766-1.4863281v-8.3681641Z"/>
    <path class="cls-3" d="M293.6425781,334.6142578c-1.1542969-.7060547-2.0068359-1.6679688-2.5585938-2.8837891-.5517578-1.2167969-.828125-2.5966797-.828125-4.140625,0-1.5585938.2763672-2.953125.828125-4.1845703.5517578-1.2304688,1.4042969-2.1992188,2.5585938-2.9057617,1.1533203-.706543,2.6337891-1.0600586,4.4394531-1.0600586s3.2861328.3535156,4.4394531,1.0600586c1.1542969.706543,2.0068359,1.675293,2.5585938,2.9057617.5517578,1.2314453.828125,2.6259766.828125,4.1845703,0,1.5439453-.2763672,2.9238281-.828125,4.140625-.5517578,1.2158203-1.4042969,2.1777344-2.5585938,2.8837891-1.1533203.7070312-2.6337891,1.0595703-4.4394531,1.0595703s-3.2861328-.3525391-4.4394531-1.0595703ZM298.0820312,333.0087891c2.5917969,0,3.8876953-1.8066406,3.8876953-5.4189453,0-1.8066406-.3134766-3.1606445-.9404297-4.0644531-.6269531-.902832-1.6015625-1.3544922-2.921875-1.3544922-2.6259766,0-3.9384766,1.8066406-3.9384766,5.4189453s1.3046875,5.4189453,3.9130859,5.4189453Z"/>
    <path class="cls-3" d="M322.3886719,328.5292969c0,1.4277344-.1923828,2.6767578-.5771484,3.7470703s-1.0664062,1.9042969-2.0449219,2.5019531c-.9775391.5976562-2.3613281.8955078-4.1513672.8955078-1.7724609,0-3.1523438-.2978516-4.1386719-.8955078s-1.671875-1.4316406-2.0566406-2.5019531-.5771484-2.3193359-.5771484-3.7470703v-8.8276367c.6357422-.0874023,1.2548828-.1308594,1.8564453-.1308594.5849609,0,1.1875.043457,1.8056641.1308594v8.1499023c0,1.1796875.0751953,2.1416016.2265625,2.8847656.1503906.7421875.4511719,1.2929688.9023438,1.6494141.4521484.3574219,1.1123047.5351562,1.9814453.5351562.8701172,0,1.5263672-.1777344,1.9697266-.5351562.4423828-.3564453.7392578-.9072266.890625-1.6494141.1503906-.7431641.2255859-1.7050781.2255859-2.8847656v-8.1499023c.6855469-.0874023,1.2958984-.1308594,1.8310547-.1308594.6181641,0,1.2373047.043457,1.8564453.1308594v8.8276367Z"/>
    <path class="cls-3" d="M325.9492188,319.7016602c.7353516-.0727539,1.4248047-.1342773,2.0693359-.1855469.6435547-.0507812,1.3583984-.0766602,2.1445312-.0766602.9199219,0,1.8271484.0732422,2.7216797.21875s1.7060547.4008789,2.4326172.7646484c.7275391.3642578,1.3085938.8666992,1.7441406,1.5078125.4345703.6411133.6513672,1.449707.6513672,2.425293,0,.7573242-.1416016,1.4086914-.4257812,1.9555664-.2851562.5458984-.6230469.9980469-1.0166016,1.3544922-.3925781.3574219-.7734375.6376953-1.140625.8408203l-.4267578.2412109,4.3896484,6.6416016c-.3349609.0292969-.6855469.0625-1.0537109.0986328s-.7441406.0546875-1.1289062.0546875c-.3173828,0-.6308594-.0146484-.9404297-.0439453s-.6230469-.0654297-.9404297-.109375l-4.7158203-7.2978516.6025391-.2617188c.2333984-.1015625.5136719-.2333984.8398438-.3935547s.6474609-.3603516.9658203-.6005859c.3173828-.2402344.5849609-.5322266.8027344-.8740234.2167969-.3427734.3261719-.7460938.3261719-1.2128906,0-.9174805-.3007812-1.5913086-.9033203-2.0209961-.6015625-.4291992-1.3798828-.6445312-2.3330078-.6445312-.3681641,0-.7021484.0219727-1.0029297.0654297v13.2631836c-.3007812.0283203-.6025391.0576172-.9033203.0869141s-.59375.0439453-.8779297.0439453c-.5683594,0-1.1953125-.0439453-1.8808594-.1308594v-15.7104492Z"/>
    <path class="cls-3" d="M341.0996094,319.7016602c.5351562-.0874023,1.0283203-.1308594,1.4794922-.1308594.5185547,0,1.0371094.043457,1.5556641.1308594l6.9736328,10.0073242v-10.0073242c.6015625-.0874023,1.1787109-.1308594,1.7304688-.1308594.5351562,0,1.0361328.043457,1.5048828.1308594v15.7104492c-.5185547.0869141-1.0029297.1308594-1.4550781.1308594-.4677734,0-.9775391-.0439453-1.5302734-.1308594l-7.0234375-9.9853516v9.9853516c-.5185547.0869141-1.0615234.1308594-1.6298828.1308594-.5351562,0-1.0703125-.0439453-1.6054688-.1308594v-15.7104492Z"/>
    <path class="cls-3" d="M362.0449219,319.7016602c.3505859-.043457.6845703-.0761719,1.0029297-.0981445.3173828-.0219727.6689453-.0327148,1.0537109-.0327148.3339844,0,.6601562.0107422.9785156.0327148.3173828.0219727.6679688.0546875,1.0527344.0981445l5.6445312,15.7104492c-.6689453.0869141-1.3388672.1308594-2.0068359.1308594-.6357422,0-1.2548828-.0439453-1.8564453-.1308594l-1.0029297-3.1464844h-5.9707031l-1.0283203,3.1464844c-.6015625.0869141-1.1787109.1308594-1.7304688.1308594-.6191406,0-1.2294922-.0439453-1.8310547-.1308594l5.6943359-15.7104492ZM363.9755859,323.0229492l-2.1816406,6.5981445h4.2636719l-2.0820312-6.5981445Z"/>
    <path class="cls-3" d="M373.8085938,319.7016602c.6357422-.0874023,1.2294922-.1308594,1.78125-.1308594.6015625,0,1.2119141.043457,1.8310547.1308594v12.9575195h6.2460938c.0498047.2470703.0830078.484375.0996094.7099609s.0253906.4404297.0253906.6445312c0,.2333984-.0087891.4619141-.0253906.6884766-.0166016.2255859-.0498047.4619141-.0996094.7099609h-9.8583984v-15.7104492Z"/>
  </g>
  <g>
    <path class="cls-1" d="M101.4931641,309.7011719c-3.234375-2.6206055-4.8515625-6.9799805-4.8515625-13.078125,0-4.1108398.8173828-7.5361328,2.453125-10.2773438,1.6347656-2.7407227,3.8085938-4.753418,6.5224609-6.0380859,2.7128906-1.284668,5.7050781-1.9272461,8.9755859-1.9272461,2.3720703,0,4.3486328.2915039,5.9306641.8735352,1.5810547.5830078,2.7578125,1.3964844,3.53125,2.440918.7714844,1.0454102,1.1582031,2.2353516,1.1582031,3.5717773,0,1.5078125-.4228516,2.6552734-1.2666016,3.4428711-.8447266.7885742-1.8779297,1.1816406-3.0996094,1.1816406-1.078125,0-2.0039062-.3417969-2.7763672-1.0273438-.7734375-.6850586-1.1777344-1.4560547-1.2128906-2.3125,1.0058594-.1713867,1.8330078-.5219727,2.4794922-1.0537109.6474609-.5307617.9707031-1.2924805.9707031-2.2866211,0-1.0615234-.4404297-1.9013672-1.3212891-2.5180664s-2.09375-.9248047-3.6386719-.9248047c-3.7734375,0-6.6308594,1.4643555-8.5712891,4.3935547s-2.9111328,7.1000977-2.9111328,12.5126953c0,4.6943359.7998047,8.3764648,2.3994141,11.0483398,1.5986328,2.6723633,4.1953125,4.0083008,7.7890625,4.0083008,1.9414062,0,3.5400391-.3935547,4.7978516-1.1816406v-13.4125977h6.2539062v12.847168c-1.0429688,1.0966797-2.6328125,1.9785156-4.7705078,2.6464844-2.1386719.6679688-4.4121094,1.0019531-6.8203125,1.0019531-4.7792969,0-8.7871094-1.3105469-12.0214844-3.9311523ZM113.6767578,297.2397461v-.9248047h14.1240234l-.0537109.9248047-2.6416016.8735352h-6.1455078l-5.2832031-.8735352Z"/>
    <path class="cls-1" d="M138.0966797,311.4482422c-2.4443359-1.4555664-4.2949219-3.527832-5.5517578-6.2177734-1.2587891-2.6889648-1.8867188-5.8491211-1.8867188-9.480957,0-3.5283203.6464844-6.5947266,1.9404297-9.1982422s3.1621094-4.6162109,5.6064453-6.0380859c2.4433594-1.4213867,5.390625-2.1328125,8.8408203-2.1328125s6.3964844.7197266,8.8408203,2.1582031c2.4443359,1.4389648,4.2949219,3.4609375,5.5527344,6.0639648,1.2578125,2.6040039,1.8867188,5.6357422,1.8867188,9.0957031,0,3.6660156-.6289062,6.8432617-1.8867188,9.5322266-1.2578125,2.6899414-3.1083984,4.762207-5.5527344,6.2177734-2.4443359,1.456543-5.4091797,2.184082-8.8945312,2.184082-3.4863281,0-6.4511719-.7275391-8.8955078-2.184082ZM152.0322266,310.2407227c1.3837891-1.3696289,2.4169922-3.296875,3.0996094-5.78125.6826172-2.4833984,1.0244141-5.4213867,1.0244141-8.8129883,0-4.8637695-.7910156-8.7358398-2.3720703-11.6132812-1.5810547-2.8779297-3.8271484-4.3168945-6.7382812-4.3168945-2.9833984,0-5.2558594,1.4389648-6.8193359,4.3168945-1.5634766,2.8774414-2.3447266,6.7495117-2.3447266,11.6132812,0,3.4262695.3408203,6.3720703,1.0244141,8.8388672.6816406,2.4667969,1.7060547,4.3857422,3.0722656,5.7553711,1.3652344,1.3706055,3.0546875,2.0556641,5.0673828,2.0556641,1.9404297,0,3.6025391-.6850586,4.9863281-2.0556641Z"/>
    <path class="cls-1" d="M174.1611328,311.4482422c-2.4443359-1.4555664-4.2949219-3.527832-5.5517578-6.2177734-1.2587891-2.6889648-1.8867188-5.8491211-1.8867188-9.480957,0-3.5283203.6464844-6.5947266,1.9404297-9.1982422s3.1621094-4.6162109,5.6064453-6.0380859c2.4433594-1.4213867,5.390625-2.1328125,8.8408203-2.1328125s6.3964844.7197266,8.8408203,2.1582031c2.4443359,1.4389648,4.2939453,3.4609375,5.5537109,6.0639648,1.2578125,2.6040039,1.8867188,5.6357422,1.8867188,9.0957031,0,3.6660156-.6289062,6.8432617-1.8867188,9.5322266-1.2597656,2.6899414-3.109375,4.762207-5.5537109,6.2177734-2.4443359,1.456543-5.4091797,2.184082-8.8945312,2.184082-3.4863281,0-6.4511719-.7275391-8.8955078-2.184082ZM188.0966797,310.2407227c1.3837891-1.3696289,2.4169922-3.296875,3.0996094-5.78125.6826172-2.4833984,1.0244141-5.4213867,1.0244141-8.8129883,0-4.8637695-.7910156-8.7358398-2.3720703-11.6132812-1.5810547-2.8779297-3.8271484-4.3168945-6.7382812-4.3168945-2.9833984,0-5.2558594,1.4389648-6.8193359,4.3168945-1.5634766,2.8774414-2.3447266,6.7495117-2.3447266,11.6132812,0,3.4262695.3408203,6.3720703,1.0244141,8.8388672.6816406,2.4667969,1.7060547,4.3857422,3.0722656,5.7553711,1.3652344,1.3706055,3.0546875,2.0556641,5.0673828,2.0556641,1.9404297,0,3.6025391-.6850586,4.9863281-2.0556641Z"/>
    <path class="cls-1" d="M208.0166016,280.8984375h-1.1865234l-4.6894531-.9765625v-.8735352h5.8759766v1.8500977ZM202.140625,312.9643555v-.9248047l4.7441406-.925293h1.1855469v1.8500977h-5.9296875ZM206.8300781,279.0483398h6.6855469v33.9160156h-6.6855469v-33.9160156ZM208.609375,311.1660156l2.4794922.4106445h5.8769531c2.6591797,0,4.8867188-.4189453,6.6845703-1.2587891,1.7958984-.8388672,3.2246094-2.3974609,4.2851562-4.6762695,1.0595703-2.277832,1.5908203-5.4384766,1.5908203-9.480957,0-4.2822266-.4951172-7.5708008-1.4824219-9.8666992-.9892578-2.2944336-2.3642578-3.8540039-4.1240234-4.6762695-1.7617188-.8217773-4.0800781-1.2329102-6.9541016-1.2329102h-6.3076172v-1.3364258h7.1699219c4.4199219,0,8.0136719.6000977,10.78125,1.7988281,2.7675781,1.199707,4.8066406,3.0239258,6.1191406,5.4726562,1.3115234,2.449707,1.9677734,5.6103516,1.9677734,9.480957,0,5.6191406-1.5185547,9.8842773-4.5556641,12.7954102-3.0371094,2.9125977-7.8261719,4.3681641-14.3662109,4.3681641h-9.1650391v-1.7983398Z"/>
  </g>
  <g>
    <path class="cls-3" d="M101.6025391,262.0043945h-3.7822266c-.0839844-.3681641-.1259766-.7548828-.1259766-1.159668,0-.3798828.0419922-.7543945.1259766-1.1225586h10.6699219c.0849609.3681641.1269531.7426758.1269531,1.1225586,0,.4047852-.0419922.7915039-.1269531,1.159668h-3.78125v10.9506836c-.2539062.0244141-.5078125.0488281-.7607422.0737305-.2539062.0244141-.5.0366211-.7402344.0366211-.4931641,0-1.0283203-.0366211-1.6054688-.1103516v-10.9506836Z"/>
    <path class="cls-3" d="M110.6240234,259.722168c.5351562-.0737305,1.0498047-.1103516,1.5429688-.1103516.5205078,0,1.0419922.0366211,1.5634766.1103516v5.1899414h5.0917969v-5.1899414c.5351562-.0737305,1.0488281-.1103516,1.5419922-.1103516.5214844,0,1.0419922.0366211,1.5634766.1103516v13.2329102c-.5214844.0737305-1.0351562.1103516-1.5419922.1103516s-1.0283203-.0366211-1.5634766-.1103516v-5.7236328h-5.0917969v5.7236328c-.5214844.0737305-1.0351562.1103516-1.5429688.1103516-.5068359,0-1.0283203-.0366211-1.5634766-.1103516v-13.2329102Z"/>
    <path class="cls-3" d="M124.8857422,259.722168h8.6201172c.0849609.3681641.1269531.7426758.1269531,1.1225586,0,.4047852-.0419922.7915039-.1269531,1.159668h-5.5351562v2.8710938h4.3945312c.0839844.3803711.1269531.7607422.1269531,1.1411133s-.0429688.7670898-.1269531,1.1591797h-4.3945312v3.4970703h5.6826172c.0849609.3681641.1269531.7426758.1269531,1.1225586,0,.4052734-.0419922.7915039-.1269531,1.159668h-8.7675781v-13.2329102Z"/>
  </g>
  <g>
    <path class="cls-1" d="M248.9482422,309.7011719c-3.234375-2.6206055-4.8515625-6.9799805-4.8515625-13.078125,0-4.1108398.8164062-7.5361328,2.4521484-10.2773438,1.6347656-2.7407227,3.8095703-4.753418,6.5234375-6.0380859,2.7128906-1.284668,5.7050781-1.9272461,8.9755859-1.9272461,2.3720703,0,4.3476562.2915039,5.9296875.8735352,1.5810547.5830078,2.7578125,1.3964844,3.53125,2.440918.7724609,1.0454102,1.1591797,2.2353516,1.1591797,3.5717773,0,1.5078125-.4228516,2.6552734-1.2666016,3.4428711-.8457031.7885742-1.8789062,1.1816406-3.1005859,1.1816406-1.078125,0-2.0039062-.3417969-2.7753906-1.0273438-.7734375-.6850586-1.1777344-1.4560547-1.2138672-2.3125,1.0058594-.1713867,1.8330078-.5219727,2.4804688-1.0537109.6464844-.5307617.9697266-1.2924805.9697266-2.2866211,0-1.0615234-.4404297-1.9013672-1.3203125-2.5180664-.8808594-.6166992-2.09375-.9248047-3.6386719-.9248047-3.7734375,0-6.6308594,1.4643555-8.5712891,4.3935547-1.9414062,2.9291992-2.9111328,7.1000977-2.9111328,12.5126953,0,4.6943359.7988281,8.3764648,2.3984375,11.0483398,1.5986328,2.6723633,4.1953125,4.0083008,7.7900391,4.0083008,1.9404297,0,3.5390625-.3935547,4.7978516-1.1816406v-13.4125977h6.2529297v12.847168c-1.0419922,1.0966797-2.6328125,1.9785156-4.7705078,2.6464844-2.1386719.6679688-4.4121094,1.0019531-6.8193359,1.0019531-4.7802734,0-8.7871094-1.3105469-12.0214844-3.9311523ZM261.1318359,297.2397461v-.9248047h14.1240234l-.0546875.9248047-2.6416016.8735352h-6.1455078l-5.2822266-.8735352Z"/>
    <path class="cls-1" d="M282.5869141,312.9643555h-5.1210938v-.9248047l4.3125-.8222656v-30.4213867l-4.3125-.8222656v-.925293h11.0507812v32.1689453l4.3671875.8222656v.9248047h-10.296875ZM286.2529297,295.1328125h4.9052734c1.8330078,0,3.3330078-.2133789,4.5009766-.6420898,1.1679688-.4282227,2.0576172-1.1899414,2.6689453-2.2871094.6103516-1.0957031.9160156-2.6206055.9160156-4.5732422,0-2.9116211-.7099609-4.8564453-2.1289062-5.8325195-1.4199219-.9765625-3.3339844-1.4648438-5.7412109-1.4648438h-5.1757812l1.5634766-1.284668h3.6123047c5.1025391,0,8.9033203.6772461,11.4013672,2.0297852,2.4980469,1.3540039,3.7470703,3.4863281,3.7470703,6.3979492,0,2.1245117-.5849609,3.8461914-1.7519531,5.1645508-1.1689453,1.3193359-2.9111328,2.2866211-5.2294922,2.9033203s-5.1669922.9248047-8.5449219.9248047h-4.7431641v-1.3359375ZM291.5351562,295.7495117l6.2001953-.5654297,10.1884766,17.7802734h-7.1699219l-9.21875-17.2148438ZM306.6835938,311.2685547l4.2050781.8222656v.8735352h-5.1210938l.9160156-1.6958008Z"/>
    <path class="cls-1" d="M316.5488281,312.9643555h-5.1210938v-.9248047l4.3125-.8222656v-30.4213867l-4.3125-.8222656v-.925293h15.4179688v.925293l-4.3671875.8222656v30.4213867l4.3671875.8222656v.9248047h-10.296875Z"/>
    <path class="cls-1" d="M333.9609375,312.9643555h-5.1210938v-.9248047l4.3125-.8222656v-30.4213867l-4.3125-.8222656v-.925293h11.0517578v33.9160156h-5.9306641ZM334.9316406,279.0483398h20.5390625v9.6098633h-.9169922l-3.5039062-8.2734375h-16.1181641v-1.3364258ZM334.9316406,311.5766602h16.3876953l3.5039062-8.2729492h.9169922v9.6606445h-20.8085938v-1.3876953ZM339.5673828,295.3896484h9.0029297l1.6171875-5.2929688h.9160156v11.921875h-.9160156l-1.6171875-5.2412109v-.0512695h-9.0029297v-1.3364258Z"/>
    <path class="cls-1" d="M362.8554688,312.9643555h-5.1210938v-.9248047l4.3125-.8222656v-30.4213867l-4.3125-.8222656v-.925293h11.0507812v32.1689453l4.90625.8222656v.9248047h-10.8359375ZM363.8261719,279.0483398h20.5927734v9.6098633h-.9160156l-3.5048828-8.2734375h-16.171875v-1.3364258ZM368.0849609,295.5952148h9.1103516l1.6171875-5.2929688h.9160156v11.921875h-.9160156l-1.6171875-5.2412109h-9.1103516v-1.3876953Z"/>
  </g>
  <path class="cls-2" d="M72.44109,276.6756315c-.4941656-.846268-4.8835275-11.2486319-8.0474739-18.4568362-1.157189-2.6363451-4.9361107-2.5636771-5.9906319.1147448-4.1121796,10.4446942-11.024431,28.0421805-14.6444191,37.2134612-1.3983538,3.7771498-5.4037664,11.3392277-1.907148,18.8496637.627412,1.3476271,1.4943632,2.5742836,2.4807575,3.6886254,13.2097386,14.9232038,28.1479006,13.9606576,39.5793852-2.0148321,5.9165632-8.2683918.9933591-17.383227-3.1155146-26.0265226-.8385423-1.7639308-3.036768-2.3939564-4.6860825-1.3400716-6.009371,3.839889-12.5591646,15.2432395-12.5587584,21.5081218"/>
</svg>