<?xml version="1.0" encoding="UTF-8"?>
<svg id="Layer_1" data-name="Layer 1" xmlns="http://www.w3.org/2000/svg" viewBox="0 0 438.7798165 621.0882198">
  <defs>
    <style>
      .cls-1 {
        fill: #fff;
      }

      .cls-2 {
        stroke: #cb9ac6;
      }

      .cls-2, .cls-3, .cls-4, .cls-5 {
        fill: none;
        stroke-linejoin: round;
      }

      .cls-2, .cls-4, .cls-5 {
        stroke-width: 9px;
      }

      .cls-6 {
        fill: #f7e8f2;
      }

      .cls-7 {
        fill: #48598a;
      }

      .cls-8 {
        fill: #3a3462;
      }

      .cls-3 {
        stroke-width: 7px;
      }

      .cls-3, .cls-4 {
        stroke: #48598a;
      }

      .cls-9 {
        fill: #f6e7f1;
      }

      .cls-10 {
        fill: #cb9ac6;
      }

      .cls-5 {
        stroke: #3a3462;
      }
    </style>
  </defs>
  <g>
    <path class="cls-7" d="M40.5493478,579.2386104h4.2895508v1.0419922h-4.2895508v-1.0419922Z"/>
    <path class="cls-7" d="M58.294465,578.9182979c0-2.7246094,1.5786133-4.9072266,4.9589844-4.9072266,1.1796875,0,2.2480469.2089844,3.0615234.5839844l-.4306641.9873047c-.7333984-.2783203-1.6420898-.4589844-2.5830078-.4589844-2.2641602,0-3.4443359,1.4599609-3.4443359,3.7949219,0,2.4462891,1.0205078,3.8789062,3.3168945,3.8789062.78125,0,1.4189453-.1113281,1.9130859-.2919922v-2.6835938h-1.2119141l-.175293-.9169922h2.7587891v4.3369141c-1.0366211.4589844-2.152832.6669922-3.3803711.6669922-3.2373047,0-4.7836914-2.0429688-4.7836914-4.9902344Z"/>
    <path class="cls-7" d="M71.7397775,576.6253292c2.4394531,0,3.2368164,1.7792969,3.2368164,3.4472656v.2919922l-5.0864258.1660156c.0634766,1.5429688.78125,2.3496094,2.1206055,2.3496094.6694336,0,1.3076172-.1386719,2.0410156-.4033203l.4462891.9453125c-.8608398.3203125-1.6264648.4863281-2.503418.4863281-2.6308594,0-3.5874023-1.7929688-3.5874023-3.6279297,0-1.7509766.8769531-3.6552734,3.3325195-3.6552734ZM73.4936837,579.4749386c-.1118164-1.1123047-.5581055-1.8212891-1.7539062-1.8212891-.9726562,0-1.6904297.5-1.8339844,1.9462891l3.5878906-.125Z"/>
    <path class="cls-7" d="M79.9863595,576.6253292c2.5195312,0,3.4282227,1.8066406,3.4282227,3.6416016,0,1.8623047-.9086914,3.6416016-3.4121094,3.6416016s-3.4282227-1.7792969-3.4282227-3.6416016c0-1.8349609.9248047-3.6416016,3.4121094-3.6416016ZM81.931672,580.2669308c0-1.4873047-.4306641-2.6132812-1.9453125-2.6132812s-1.9135742,1.1259766-1.9135742,2.6132812c0,1.5009766.4145508,2.6132812,1.9135742,2.6132812,1.5307617,0,1.9453125-1.1259766,1.9453125-2.6132812Z"/>
    <path class="cls-7" d="M85.331086,576.7776729h1.2119141l.0795898.8066406h.0322266c.4941406-.5283203,1.2119141-.9589844,1.9931641-.9589844,1.0522461,0,1.7539062.4580078,2.1367188,1.1113281.4941406-.5283203,1.4506836-1.1113281,2.2802734-1.1113281,1.7060547,0,2.519043,1.1669922,2.519043,2.5292969v4.6015625h-1.4189453v-4.4482422c0-.9316406-.2075195-1.6542969-1.2436523-1.6542969-.6699219,0-1.4033203.5283203-1.8178711.9589844.0478516.1943359.0634766.3613281.0634766.5419922v4.6015625h-1.4189453v-4.4482422c0-.9316406-.2070312-1.6542969-1.2436523-1.6542969-.7016602,0-1.3393555.4863281-1.7539062.9726562v5.1298828h-1.4194336v-6.9785156Z"/>
    <path class="cls-7" d="M100.7705392,576.6253292c2.4394531,0,3.2368164,1.7792969,3.2368164,3.4472656v.2919922l-5.0864258.1660156c.0634766,1.5429688.78125,2.3496094,2.1206055,2.3496094.6694336,0,1.3076172-.1386719,2.0410156-.4033203l.4462891.9453125c-.8608398.3203125-1.6264648.4863281-2.503418.4863281-2.6308594,0-3.5878906-1.7929688-3.5878906-3.6279297,0-1.7509766.8774414-3.6552734,3.3330078-3.6552734ZM102.5244454,579.4749386c-.1118164-1.1123047-.5581055-1.8212891-1.7539062-1.8212891-.9726562,0-1.6904297.5-1.8339844,1.9462891l3.5878906-.125Z"/>
    <path class="cls-7" d="M106.6411446,577.6673214h-1.4033203v-.8896484h1.4033203v-2.0292969l1.4033203-.2919922v2.3212891h1.8178711l-.1757812.8896484h-1.6420898v4.2402344c0,.7089844.2709961.9726562.8129883.9726562.2871094,0,.6381836-.0556641.9091797-.1533203l.3188477.9453125c-.3989258.1533203-.940918.2363281-1.371582.2363281-1.2436523,0-2.0727539-.5693359-2.0727539-1.8349609v-4.40625Z"/>
    <path class="cls-7" d="M111.7934884,576.7776729h1.1796875l.0957031,1.1542969h.0322266c.3505859-.5986328,1.1479492-1.3066406,2.0566406-1.3066406.3666992,0,.590332.0546875.8295898.1386719l-.2871094.9726562c-.2075195-.0556641-.4145508-.0830078-.6538086-.0830078-.7177734,0-1.4990234.7646484-1.8496094,1.4179688v4.6845703h-1.4033203v-6.9785156Z"/>
    <path class="cls-7" d="M117.1689767,574.7347042c0-.4316406.3989258-.7509766.8930664-.7509766.4785156,0,.9091797.3193359.9091797.7509766,0,.4306641-.4306641.75-.9091797.75s-.8930664-.3330078-.8930664-.75ZM117.3603829,576.7776729h1.4194336v6.9785156h-1.4194336v-6.9785156Z"/>
    <path class="cls-7" d="M124.4570626,576.6253292c.765625,0,1.4672852.1660156,2.2324219.5l-.4624023.9169922c-.605957-.25-1.1318359-.3886719-1.7700195-.3886719-1.5942383,0-2.2641602,1.1816406-2.2641602,2.6269531,0,1.4873047.6699219,2.5996094,2.168457,2.5996094.6860352,0,1.2919922-.1533203,2.0092773-.4169922l.4145508.9589844c-.8608398.3339844-1.5942383.4863281-2.4555664.4863281-2.5830078,0-3.6352539-1.7236328-3.6352539-3.6416016s1.1958008-3.6416016,3.7626953-3.6416016Z"/>
    <path class="cls-7" d="M129.0840157,582.2688839c.5581055,0,.9726562.3886719.9726562.9863281,0,1.0703125-.9091797,2.1689453-1.3393555,2.5166016l-.5742188-.3056641c.3666992-.3623047.8452148-1.0009766.8452148-1.5429688-.5898438-.0839844-.8613281-.4873047-.8613281-.8203125,0-.4589844.3989258-.8339844.9570312-.8339844Z"/>
    <path class="cls-7" d="M135.56009,582.0735714c.7016602.3613281,1.6420898.7236328,2.503418.7236328,1.2275391,0,2.0888672-.5839844,2.0888672-1.6269531,0-2.0429688-4.6879883-1.5849609-4.6879883-4.5869141,0-1.5429688,1.4350586-2.5722656,3.3007812-2.5722656,1.1000977,0,2.0092773.2919922,2.8061523.6679688l-.5258789.9589844c-.6538086-.2919922-1.4194336-.5146484-2.2485352-.5146484-1.1958008,0-1.7700195.5703125-1.7700195,1.4462891,0,2.1679688,4.6879883,1.5839844,4.6879883,4.6142578,0,1.7382812-1.737793,2.7246094-3.6674805,2.7246094-1.0361328,0-2.1845703-.375-3.0454102-.8476562l.5581055-.9873047Z"/>
    <path class="cls-7" d="M143.4555978,574.7347042c0-.4316406.3989258-.7509766.8930664-.7509766.4785156,0,.9091797.3193359.9091797.7509766,0,.4306641-.4306641.75-.9091797.75s-.8930664-.3330078-.8930664-.75ZM143.647004,576.7776729h1.4194336v6.9785156h-1.4194336v-6.9785156Z"/>
    <path class="cls-7" d="M147.3638009,576.7776729h1.2119141l.0795898.8066406h.0322266c.4941406-.5283203,1.2119141-.9589844,1.9931641-.9589844,1.0522461,0,1.7539062.4580078,2.1367188,1.1113281.4941406-.5283203,1.4506836-1.1113281,2.2802734-1.1113281,1.7060547,0,2.519043,1.1669922,2.519043,2.5292969v4.6015625h-1.4189453v-4.4482422c0-.9316406-.2075195-1.6542969-1.2436523-1.6542969-.6699219,0-1.4033203.5283203-1.8178711.9589844.0478516.1943359.0634766.3613281.0634766.5419922v4.6015625h-1.4189453v-4.4482422c0-.9316406-.2075195-1.6542969-1.2436523-1.6542969-.7016602,0-1.3393555.4863281-1.7539062.9726562v5.1298828h-1.4194336v-6.9785156Z"/>
    <path class="cls-7" d="M161.2881173,586.7024776h-1.4189453v-9.9248047h1.1958008l.0957031.7783203c.3666992-.4306641,1.1640625-.9306641,2.1206055-.9306641,2.2802734,0,3.0776367,1.8896484,3.0776367,3.6552734,0,1.8349609-1.0844727,3.6279297-3.4760742,3.6279297-.6699219,0-1.2915039-.1806641-1.5947266-.3056641v3.0996094ZM162.6753243,582.880212c1.5151367,0,2.1845703-1.1259766,2.1845703-2.5996094,0-1.4316406-.4301758-2.6269531-1.737793-2.6269531-.7333984,0-1.4194336.4443359-1.8339844.9726562v3.9619141c.3666992.1533203.8613281.2919922,1.387207.2919922Z"/>
    <path class="cls-7" d="M168.2431954,573.7747433l1.4194336-.3056641v10.2871094h-1.4194336v-9.9814453Z"/>
    <path class="cls-7" d="M171.7680978,574.7347042c0-.4316406.3989258-.7509766.8930664-.7509766.4785156,0,.9091797.3193359.9091797.7509766,0,.4306641-.4306641.75-.9091797.75s-.8930664-.3330078-.8930664-.75ZM171.959504,576.7776729h1.4194336v6.9785156h-1.4194336v-6.9785156Z"/>
    <path class="cls-7" d="M175.9795235,577.6673214h-1.3076172v-.8896484h1.3076172v-.7783203c0-1.6542969.78125-2.5302734,3.1572266-2.5302734.796875,0,1.7695312.1396484,2.5512695.4033203l-.3349609.9589844c-.6699219-.2216797-1.4990234-.3330078-2.2163086-.3330078-1.4829102,0-1.7382812.4580078-1.7382812,1.5429688v.7363281h4.8955078v6.9785156h-1.4194336v-6.0888672h-3.4760742v6.0888672h-1.4189453v-6.0888672Z"/>
    <path class="cls-7" d="M187.5430001,576.6253292c2.4394531,0,3.2368164,1.7792969,3.2368164,3.4472656v.2919922l-5.0864258.1660156c.0634766,1.5429688.78125,2.3496094,2.1206055,2.3496094.6694336,0,1.3076172-.1386719,2.0410156-.4033203l.4462891.9453125c-.8608398.3203125-1.6264648.4863281-2.503418.4863281-2.6308594,0-3.5878906-1.7929688-3.5878906-3.6279297,0-1.7509766.8774414-3.6552734,3.3330078-3.6552734ZM189.2969064,579.4749386c-.1118164-1.1123047-.5581055-1.8212891-1.7539062-1.8212891-.9726562,0-1.6904297.5-1.8339844,1.9462891l3.5878906-.125Z"/>
    <path class="cls-7" d="M192.3769845,580.2669308c0-1.8349609,1.0678711-3.6416016,3.4760742-3.6416016.6694336,0,1.2915039.1806641,1.5942383.3056641v-3.3085938h1.4033203v10.1337891h-1.1958008l-.0800781-.7783203c-.3188477.4169922-1.1479492.9306641-2.1206055.9306641-2.2802734,0-3.0771484-1.8349609-3.0771484-3.6416016ZM197.447297,581.9212276v-3.9755859c-.3666992-.1533203-.8608398-.2919922-1.387207-.2919922-1.5146484,0-2.1845703,1.1259766-2.1845703,2.6132812,0,1.4179688.4306641,2.6132812,1.722168,2.6132812.7495117,0,1.5146484-.4726562,1.8496094-.9589844Z"/>
    <path class="cls-7" d="M206.8594064,575.2766964h-2.8222656v-1.1123047h7.1113281v1.1123047h-2.8061523v8.4794922h-1.4829102v-8.4794922Z"/>
    <path class="cls-7" d="M214.2446603,576.6253292c2.4394531,0,3.2368164,1.7792969,3.2368164,3.4472656v.2919922l-5.0864258.1660156c.0634766,1.5429688.78125,2.3496094,2.1206055,2.3496094.6694336,0,1.3076172-.1386719,2.0410156-.4033203l.4462891.9453125c-.8608398.3203125-1.6264648.4863281-2.503418.4863281-2.6308594,0-3.5874023-1.7929688-3.5874023-3.6279297,0-1.7509766.8769531-3.6552734,3.3325195-3.6552734ZM215.9985665,579.4749386c-.1118164-1.1123047-.5581055-1.8212891-1.7539062-1.8212891-.9726562,0-1.6904297.5-1.8339844,1.9462891l3.5878906-.125Z"/>
    <path class="cls-7" d="M221.9170235,579.8362667l1.6904297-.0703125v-.6113281c0-1.0146484-.3989258-1.5009766-1.546875-1.5009766-.6538086,0-1.4189453.2226562-1.9931641.4863281l-.5102539-.8896484c.6699219-.3193359,1.5629883-.625,2.5356445-.625,1.9135742,0,2.918457.9443359,2.918457,2.5429688v4.5878906h-1.2119141l-.0644531-.6679688h-.0639648c-.4624023.4726562-1.2436523.8203125-2.1523438.8203125-1.4511719,0-2.4394531-.8613281-2.4394531-2.0566406,0-1.3349609,1.3710938-1.9462891,2.8378906-2.015625ZM221.7734689,582.8938839c.6699219,0,1.3398438-.3056641,1.8339844-.6953125v-1.5839844l-1.4667969.0693359c-1.1005859.0419922-1.5629883.4726562-1.5629883,1.1533203,0,.5703125.4145508,1.0566406,1.1958008,1.0566406Z"/>
    <path class="cls-7" d="M227.2778634,576.7776729h1.1796875l.0957031,1.1542969h.0322266c.3505859-.5986328,1.1474609-1.3066406,2.0566406-1.3066406.3671875,0,.5898438.0546875.8291016.1386719l-.2871094.9726562c-.2070312-.0556641-.4140625-.0830078-.6533203-.0830078-.7177734,0-1.4990234.7646484-1.8496094,1.4179688v4.6845703h-1.4033203v-6.9785156Z"/>
    <path class="cls-7" d="M236.3696603,574.1643917h3.3164062c3.3486328,0,4.4492188,2.4746094,4.4492188,4.8095703,0,2.3212891-1.1005859,4.7822266-4.4492188,4.7822266h-3.3164062v-9.5917969ZM239.5903634,582.6438839c2.4238281,0,2.9980469-1.7519531,2.9980469-3.6699219s-.5742188-3.6972656-2.9980469-3.6972656h-1.7382812v7.3671875h1.7382812Z"/>
    <path class="cls-7" d="M246.100129,576.7776729h1.1796875l.0957031,1.1542969h.0322266c.3505859-.5986328,1.1474609-1.3066406,2.0566406-1.3066406.3671875,0,.5898438.0546875.8291016.1386719l-.2871094.9726562c-.2070312-.0556641-.4140625-.0830078-.6533203-.0830078-.7177734,0-1.4990234.7646484-1.8496094,1.4179688v4.6845703h-1.4033203v-6.9785156Z"/>
    <path class="cls-7" d="M254.6968087,576.6253292c2.5195312,0,3.4287109,1.8066406,3.4287109,3.6416016,0,1.8623047-.9091797,3.6416016-3.4130859,3.6416016-2.5029297,0-3.4277344-1.7792969-3.4277344-3.6416016,0-1.8349609.9248047-3.6416016,3.4121094-3.6416016ZM256.6421212,580.2669308c0-1.4873047-.4306641-2.6132812-1.9453125-2.6132812s-1.9130859,1.1259766-1.9130859,2.6132812c0,1.5009766.4140625,2.6132812,1.9130859,2.6132812,1.5302734,0,1.9453125-1.1259766,1.9453125-2.6132812Z"/>
    <path class="cls-7" d="M261.4761056,586.7024776h-1.4189453v-9.9248047h1.1962891l.0957031.7783203c.3662109-.4306641,1.1630859-.9306641,2.1201172-.9306641,2.2802734,0,3.078125,1.8896484,3.078125,3.6552734,0,1.8349609-1.0849609,3.6279297-3.4765625,3.6279297-.6699219,0-1.2919922-.1806641-1.5947266-.3056641v3.0996094ZM262.8638009,582.880212c1.5146484,0,2.1845703-1.1259766,2.1845703-2.5996094,0-1.4316406-.4306641-2.6269531-1.7382812-2.6269531-.7333984,0-1.4189453.4443359-1.8339844.9726562v3.9619141c.3671875.1533203.8613281.2919922,1.3876953.2919922Z"/>
    <path class="cls-7" d="M40.5493478,595.9124386h4.2895508v1.0419922h-4.2895508v-1.0419922Z"/>
    <path class="cls-7" d="M58.7568673,590.8382198h5.8676758l-.1435547,1.1123047h-4.2412109v3.0302734h3.9223633v1.0976562h-3.9223633v3.2392578h4.3530273l.1435547,1.1123047h-5.9794922v-9.5917969Z"/>
    <path class="cls-7" d="M66.71634,593.4515011h1.2119141l.0795898.8066406h.0322266c.4941406-.5283203,1.2119141-.9589844,1.9931641-.9589844,1.0522461,0,1.7539062.4580078,2.1367188,1.1113281.4941406-.5283203,1.4506836-1.1113281,2.2802734-1.1113281,1.7060547,0,2.519043,1.1669922,2.519043,2.5292969v4.6015625h-1.4189453v-4.4482422c0-.9316406-.2075195-1.6542969-1.2436523-1.6542969-.6699219,0-1.4033203.5283203-1.8178711.9589844.0478516.1943359.0634766.3613281.0634766.5419922v4.6015625h-1.4189453v-4.4482422c0-.9316406-.2075195-1.6542969-1.2436523-1.6542969-.7016602,0-1.3393555.4863281-1.7539062.9726562v5.1298828h-1.4194336v-6.9785156Z"/>
    <path class="cls-7" d="M79.206086,590.4485714l1.4194336-.3056641v3.90625h.0317383c.4462891-.4306641,1.2119141-.75,1.8974609-.75,2.2802734,0,3.0615234,1.8896484,3.0615234,3.6416016,0,1.7509766-1.0683594,3.6416016-3.5878906,3.6416016-1.0522461,0-2.1845703-.3056641-2.8222656-.6533203v-9.4804688ZM81.9966134,599.5540401c1.4667969,0,2.1367188-1.1953125,2.1367188-2.6132812,0-1.4453125-.4306641-2.6132812-1.737793-2.6132812-.765625,0-1.4033203.4306641-1.7700195.7919922v4.1845703c.3984375.1669922.9404297.25,1.3710938.25Z"/>
    <path class="cls-7" d="M90.4824532,593.2991573c2.4394531,0,3.2368164,1.7792969,3.2368164,3.4472656v.2919922l-5.0864258.1660156c.0634766,1.5429688.78125,2.3496094,2.1206055,2.3496094.6694336,0,1.3076172-.1386719,2.0410156-.4033203l.4462891.9453125c-.8608398.3203125-1.6264648.4863281-2.503418.4863281-2.6308594,0-3.5878906-1.7929688-3.5878906-3.6279297,0-1.7509766.8774414-3.6552734,3.3330078-3.6552734ZM92.2363595,596.1487667c-.1118164-1.1123047-.5581055-1.8212891-1.7539062-1.8212891-.9726562,0-1.6904297.5-1.8339844,1.9462891l3.5878906-.125Z"/>
    <path class="cls-7" d="M95.3164376,596.9407589c0-1.8349609,1.0683594-3.6416016,3.4765625-3.6416016.6694336,0,1.2915039.1806641,1.5942383.3056641v-3.3085938h1.4033203v10.1337891h-1.1958008l-.0800781-.7783203c-.3188477.4169922-1.1479492.9306641-2.1206055.9306641-2.2802734,0-3.0776367-1.8349609-3.0776367-3.6416016ZM100.3872384,598.5950558v-3.9755859c-.3666992-.1533203-.8608398-.2919922-1.387207-.2919922-1.5146484,0-2.1845703,1.1259766-2.1845703,2.6132812,0,1.4179688.4306641,2.6132812,1.722168,2.6132812.7495117,0,1.5146484-.4726562,1.8496094-.9589844Z"/>
    <path class="cls-7" d="M103.7070626,596.9407589c0-1.8349609,1.0678711-3.6416016,3.4760742-3.6416016.6694336,0,1.2915039.1806641,1.5942383.3056641v-3.3085938h1.4033203v10.1337891h-1.1958008l-.0800781-.7783203c-.3188477.4169922-1.1479492.9306641-2.1206055.9306641-2.2802734,0-3.0771484-1.8349609-3.0771484-3.6416016ZM108.7773751,598.5950558v-3.9755859c-.3666992-.1533203-.8608398-.2919922-1.387207-.2919922-1.5146484,0-2.1845703,1.1259766-2.1845703,2.6132812,0,1.4179688.4306641,2.6132812,1.722168,2.6132812.7495117,0,1.5146484-.4726562,1.8496094-.9589844Z"/>
    <path class="cls-7" d="M115.4292306,593.2991573c2.4394531,0,3.2368164,1.7792969,3.2368164,3.4472656v.2919922l-5.0864258.1660156c.0634766,1.5429688.78125,2.3496094,2.1206055,2.3496094.6694336,0,1.3076172-.1386719,2.0410156-.4033203l.4462891.9453125c-.8608398.3203125-1.6264648.4863281-2.503418.4863281-2.6308594,0-3.5874023-1.7929688-3.5874023-3.6279297,0-1.7509766.8769531-3.6552734,3.3325195-3.6552734ZM117.1831368,596.1487667c-.1118164-1.1123047-.5581055-1.8212891-1.7539062-1.8212891-.9726562,0-1.6904297.5-1.8339844,1.9462891l3.5878906-.125Z"/>
    <path class="cls-7" d="M120.2637032,596.9407589c0-1.8349609,1.0678711-3.6416016,3.4760742-3.6416016.6694336,0,1.2915039.1806641,1.5942383.3056641v-3.3085938h1.4033203v10.1337891h-1.1958008l-.0800781-.7783203c-.3188477.4169922-1.1479492.9306641-2.1206055.9306641-2.2802734,0-3.0771484-1.8349609-3.0771484-3.6416016ZM125.3340157,598.5950558v-3.9755859c-.3666992-.1533203-.8608398-.2919922-1.387207-.2919922-1.5146484,0-2.1845703,1.1259766-2.1845703,2.6132812,0,1.4179688.4306641,2.6132812,1.722168,2.6132812.7495117,0,1.5146484-.4726562,1.8496094-.9589844Z"/>
    <path class="cls-7" d="M132.2265939,593.1878292c0-1.0703125.9086914-2.1689453,1.3393555-2.5166016l.5742188.2919922c-.3666992.375-.8452148,1.0146484-.8452148,1.5566406.5898438.0703125.8608398.4873047.8608398.8203125,0,.4589844-.3984375.8339844-.956543.8339844s-.9726562-.3886719-.9726562-.9863281ZM134.9853829,593.1878292c0-1.0703125.8925781-2.1689453,1.3393555-2.5166016l.5737305.2919922c-.3666992.375-.8447266,1.0146484-.8447266,1.5566406.5898438.0703125.8447266.4873047.8447266.8203125,0,.4589844-.3823242.8339844-.9404297.8339844-.5742188,0-.9726562-.3886719-.9726562-.9863281Z"/>
    <path class="cls-7" d="M138.6704415,595.5921261c0-2.7246094,1.5786133-4.9072266,4.9589844-4.9072266,1.1796875,0,2.2480469.2089844,3.0615234.5839844l-.4306641.9873047c-.7333984-.2783203-1.6420898-.4589844-2.5830078-.4589844-2.2641602,0-3.4443359,1.4599609-3.4443359,3.7949219,0,2.4462891,1.0205078,3.8789062,3.3168945,3.8789062.78125,0,1.4189453-.1113281,1.9130859-.2919922v-2.6835938h-1.2119141l-.175293-.9169922h2.7587891v4.3369141c-1.0366211.4589844-2.152832.6669922-3.3803711.6669922-3.2373047,0-4.7836914-2.0429688-4.7836914-4.9902344Z"/>
    <path class="cls-7" d="M148.990754,593.8821651c.3666992-.3613281.8452148-1.0009766.8452148-1.5429688-.5898438-.0830078-.8613281-.4863281-.8613281-.8193359,0-.4589844.3989258-.8349609.9570312-.8349609s.9726562.3896484.9726562.9873047c0,1.0703125-.9091797,2.1689453-1.3393555,2.5166016l-.5742188-.3066406ZM151.7334298,593.8821651c.3828125-.3613281.8452148-1.0009766.8452148-1.5429688-.590332-.0830078-.8452148-.4863281-.8452148-.8193359,0-.4589844.3984375-.8349609.940918-.8349609.5737305,0,.9726562.3896484.9726562.9873047,0,1.0703125-.8930664,2.1689453-1.3237305,2.5166016l-.5898438-.3066406Z"/>
  </g>
  <rect class="cls-8" y="249.8987235" width="323.0091743" height="181.817553"/>
  <path class="cls-5" d="M76.9168532,477.3192555c-.6661887-1.1408608-6.5835234-15.1643726-10.8488654-24.881812-1.5600159-3.5540784-6.6544112-3.4561141-8.0760199.1546884-5.543663,14.0805777-14.8621256,37.8038929-19.7422612,50.1677715-1.8851322,5.0920065-7.2848617,15.2865056-2.5710419,25.4113858.8458192,1.8167471,2.0145632,3.4704127,3.3443295,4.972666,17.8081567,20.1180932,37.946415,18.8204767,53.357293-2.7162117,7.9761673-11.1466867,1.3391555-23.4344705-4.2000507-35.0865681-1.1304457-2.3779695-4.0938918-3.2273122-6.3173462-1.8065615-8.1012822,5.1765857-16.9311125,20.5495359-16.9305649,28.9952749"/>
  <path class="cls-4" d="M163.7891378,477.3192555c-.6661887-1.1408608-6.5835234-15.1643726-10.8488654-24.881812-1.5600159-3.5540784-6.6544112-3.4561141-8.0760199.1546884-5.543663,14.0805777-14.8621256,37.8038929-19.7422612,50.1677715-1.8851322,5.0920065-7.2848617,15.2865056-2.5710419,25.4113858.8458192,1.8167471,2.0145632,3.4704127,3.3443295,4.972666,17.8081567,20.1180932,37.946415,18.8204767,53.357293-2.7162117,7.9761673-11.1466867,1.3391555-23.4344705-4.2000507-35.0865681-1.1304457-2.3779695-4.0938918-3.2273122-6.3173462-1.8065615-8.1012822,5.1765857-16.9311125,20.5495359-16.9305649,28.9952749"/>
  <path class="cls-2" d="M253.8327865,477.3192555c-.6661887-1.1408608-6.5835234-15.1643726-10.8488654-24.881812-1.5600159-3.5540784-6.6544112-3.4561141-8.0760199.1546884-5.543663,14.0805777-14.8621256,37.8038929-19.7422612,50.1677715-1.8851322,5.0920065-7.2848617,15.2865056-2.5710419,25.4113858.8458192,1.8167471,2.0145632,3.4704127,3.3443295,4.972666,17.8081567,20.1180932,37.946415,18.8204767,53.357293-2.7162117,7.9761673-11.1466867,1.3391555-23.4344705-4.2000507-35.0865681-1.1304457-2.3779695-4.0938918-3.2273122-6.3173462-1.8065615-8.1012822,5.1765857-16.9311125,20.5495359-16.9305649,28.9952749"/>
  <g>
    <path class="cls-10" d="M289.9184884,69.6282589h-2.984375c-.1005859-.4223633-.1513672-.8808594-.1513672-1.3764648,0-.4804688.0507812-.9248047.1513672-1.3330078h6.6464844v11.5371094c0,1.0634766-.2509766,1.9228516-.7519531,2.578125-.5019531.6557617-1.1835938,1.1293945-2.0449219,1.4204102s-1.8349609.4370117-2.921875.4370117c-.2841797,0-.6396484-.0219727-1.0664062-.0654297-.4257812-.0439453-.8320312-.109375-1.2158203-.1967773-.0175781-.1015625-.0302734-.2036133-.0380859-.3056641-.0087891-.1020508-.0126953-.2114258-.0126953-.328125,0-.640625.1416016-1.3110352.4267578-2.0102539.1835938.0292969.3847656.065918.6015625.109375.2177734.0439453.4433594.0654297.6777344.0654297.3837891,0,.78125-.0361328,1.1914062-.1088867.4091797-.0727539.7607422-.262207,1.0537109-.5683594.2919922-.3056641.4384766-.8007812.4384766-1.4858398v-8.3686523Z"/>
    <path class="cls-10" d="M299.8774728,81.8318722c-1.1542969-.706543-2.0068359-1.6679688-2.5585938-2.8842773s-.828125-2.5966797-.828125-4.140625c0-1.5585938.2763672-2.953125.828125-4.1845703.5517578-1.2304688,1.4042969-2.1992188,2.5585938-2.9057617,1.1533203-.706543,2.6337891-1.0600586,4.4394531-1.0600586s3.2861328.3535156,4.4394531,1.0600586c1.1542969.706543,2.0068359,1.675293,2.5585938,2.9057617.5517578,1.2314453.828125,2.6259766.828125,4.1845703,0,1.5439453-.2763672,2.9243164-.828125,4.140625s-1.4042969,2.1777344-2.5585938,2.8842773c-1.1533203.706543-2.6337891,1.0595703-4.4394531,1.0595703s-3.2861328-.3530273-4.4394531-1.0595703ZM304.3169259,80.2259151c2.5917969,0,3.8876953-1.8061523,3.8876953-5.4189453,0-1.8061523-.3134766-3.1606445-.9404297-4.0644531-.6269531-.902832-1.6015625-1.3544922-2.921875-1.3544922-2.6259766,0-3.9384766,1.8066406-3.9384766,5.4189453,0,3.612793,1.3046875,5.4189453,3.9130859,5.4189453Z"/>
    <path class="cls-10" d="M328.6235665,75.7464229c0,1.4277344-.1923828,2.6767578-.5771484,3.7475586-.3847656,1.0703125-1.0664062,1.9042969-2.0449219,2.5014648-.9775391.5976562-2.3613281.8959961-4.1513672.8959961-1.7724609,0-3.1523438-.2983398-4.1386719-.8959961-.9863281-.597168-1.671875-1.4311523-2.0566406-2.5014648-.3847656-1.0708008-.5771484-2.3198242-.5771484-3.7475586v-8.8276367c.6357422-.0874023,1.2548828-.1308594,1.8564453-.1308594.5849609,0,1.1875.043457,1.8056641.1308594v8.1503906c0,1.1796875.0751953,2.1411133.2265625,2.8842773.1503906.7426758.4511719,1.2929688.9023438,1.6494141.4521484.3574219,1.1123047.5356445,1.9814453.5356445.8701172,0,1.5263672-.1782227,1.9697266-.5356445.4423828-.3564453.7392578-.9067383.890625-1.6494141.1503906-.7431641.2255859-1.7045898.2255859-2.8842773v-8.1503906c.6855469-.0874023,1.2958984-.1308594,1.8310547-.1308594.6181641,0,1.2373047.043457,1.8564453.1308594v8.8276367Z"/>
    <path class="cls-10" d="M332.1841134,66.9187862c.7353516-.0727539,1.4248047-.1342773,2.0693359-.1855469.6435547-.0507812,1.3583984-.0766602,2.1445312-.0766602.9199219,0,1.8271484.0732422,2.7216797.21875s1.7060547.4008789,2.4326172.7646484c.7275391.3642578,1.3085938.8666992,1.7441406,1.5078125.4345703.6411133.6513672,1.449707.6513672,2.425293,0,.7573242-.1416016,1.4091797-.4257812,1.9555664-.2851562.5463867-.6230469.9980469-1.0166016,1.3544922-.3925781.3574219-.7734375.6376953-1.140625.8413086l-.4267578.2407227,4.3896484,6.6420898c-.3349609.0292969-.6855469.0620117-1.0537109.0986328-.3681641.0361328-.7441406.0541992-1.1289062.0541992-.3173828,0-.6308594-.0146484-.9404297-.043457-.3095703-.0292969-.6230469-.0654297-.9404297-.109375l-4.7158203-7.2978516.6025391-.262207c.2333984-.1015625.5136719-.2329102.8398438-.3930664s.6474609-.3608398.9658203-.6010742c.3173828-.2402344.5849609-.5317383.8027344-.8740234.2167969-.3422852.3261719-.7460938.3261719-1.2128906,0-.9174805-.3007812-1.5913086-.9033203-2.0209961-.6015625-.4291992-1.3798828-.6445312-2.3330078-.6445312-.3681641,0-.7021484.0219727-1.0029297.0654297v13.2631836c-.3007812.0288086-.6025391.0581055-.9033203.0874023-.3007812.0288086-.59375.043457-.8779297.043457-.5683594,0-1.1953125-.043457-1.8808594-.1308594v-15.7104492Z"/>
    <path class="cls-10" d="M347.334504,66.9187862c.5351562-.0874023,1.0283203-.1308594,1.4794922-.1308594.5185547,0,1.0371094.043457,1.5556641.1308594l6.9736328,10.0073242v-10.0073242c.6015625-.0874023,1.1787109-.1308594,1.7304688-.1308594.5351562,0,1.0361328.043457,1.5048828.1308594v15.7104492c-.5185547.0874023-1.0029297.1308594-1.4550781.1308594-.4677734,0-.9775391-.043457-1.5302734-.1308594l-7.0234375-9.9853516v9.9853516c-.5185547.0874023-1.0615234.1308594-1.6298828.1308594-.5351562,0-1.0703125-.043457-1.6054688-.1308594v-15.7104492Z"/>
    <path class="cls-10" d="M368.2798165,66.9187862c.3505859-.043457.6845703-.0761719,1.0029297-.0981445.3173828-.0219727.6689453-.0327148,1.0537109-.0327148.3339844,0,.6601562.0107422.9785156.0327148.3173828.0219727.6679688.0546875,1.0527344.0981445l5.6445312,15.7104492c-.6689453.0874023-1.3388672.1308594-2.0068359.1308594-.6357422,0-1.2548828-.043457-1.8564453-.1308594l-1.0029297-3.1464844h-5.9707031l-1.0283203,3.1464844c-.6015625.0874023-1.1787109.1308594-1.7304688.1308594-.6191406,0-1.2294922-.043457-1.8310547-.1308594l5.6943359-15.7104492ZM370.2104806,70.2400753l-2.1816406,6.5986328h4.2636719l-2.0820312-6.5986328Z"/>
    <path class="cls-10" d="M380.0434884,66.9187862c.6357422-.0874023,1.2294922-.1308594,1.78125-.1308594.6015625,0,1.2119141.043457,1.8310547.1308594v12.9575195h6.2460938c.0498047.2475586.0830078.484375.0996094.7099609.0166016.2260742.0253906.440918.0253906.6445312,0,.2333984-.0087891.4624023-.0253906.6884766s-.0498047.4624023-.0996094.7099609h-9.8583984v-15.7104492Z"/>
  </g>
  <g>
    <path class="cls-8" d="M107.7280587,56.9187862c-3.234375-2.6206055-4.8515625-6.9799805-4.8515625-13.078125,0-4.1108398.8168945-7.5361328,2.4526367-10.2773438,1.6347656-2.7407227,3.809082-4.753418,6.5229492-6.0380859,2.7128906-1.284668,5.7050781-1.9272461,8.9755859-1.9272461,2.3720703,0,4.3481445.2915039,5.9301758.8735352,1.5810547.5830078,2.7578125,1.3964844,3.53125,2.440918.7719727,1.0454102,1.1586914,2.2353516,1.1586914,3.5717773,0,1.5078125-.4228516,2.6552734-1.2666016,3.4428711-.8452148.7885742-1.878418,1.1816406-3.1000977,1.1816406-1.078125,0-2.0039062-.3417969-2.7758789-1.0273438-.7734375-.6850586-1.1777344-1.4560547-1.2133789-2.3125,1.0058594-.1713867,1.8330078-.5219727,2.4799805-1.0537109.6469727-.5307617.9702148-1.2924805.9702148-2.2866211,0-1.0615234-.4404297-1.9013672-1.3208008-2.5180664-.8808594-.6166992-2.09375-.9248047-3.6386719-.9248047-3.7734375,0-6.6308594,1.4643555-8.5712891,4.3935547-1.940918,2.9291992-2.9111328,7.1000977-2.9111328,12.5126953,0,4.6943359.7993164,8.3764648,2.3989258,11.0483398,1.5986328,2.6723633,4.1953125,4.0083008,7.7895508,4.0083008,1.940918,0,3.5395508-.3935547,4.7978516-1.1816406v-13.4125977h6.253418v12.847168c-1.0424805,1.0966797-2.6328125,1.9785156-4.7705078,2.6464844-2.1386719.6679688-4.4121094,1.0019531-6.8198242,1.0019531-4.7797852,0-8.7871094-1.3105469-12.0214844-3.9311523ZM119.9116525,44.4573604v-.9248047h14.1240234l-.0541992.9248047-2.6416016.8735352h-6.1455078l-5.2827148-.8735352Z"/>
    <path class="cls-8" d="M144.3315743,58.6658565c-2.4443359-1.4555664-4.2949219-3.527832-5.5522461-6.2177734-1.2587891-2.6889648-1.8867188-5.8491211-1.8867188-9.480957,0-3.5283203.6464844-6.5947266,1.9404297-9.1982422s3.1621094-4.6162109,5.6064453-6.0380859c2.4438477-1.4213867,5.3911133-2.1328125,8.8413086-2.1328125s6.3964844.7197266,8.8408203,2.1582031c2.4438477,1.4389648,4.2944336,3.4609375,5.5527344,6.0639648,1.2573242,2.6040039,1.8867188,5.6357422,1.8867188,9.0957031,0,3.6660156-.6293945,6.8432617-1.8867188,9.5322266-1.2583008,2.6899414-3.1088867,4.762207-5.5527344,6.2177734-2.4443359,1.456543-5.4091797,2.184082-8.8950195,2.184082-3.4863281,0-6.4511719-.7275391-8.8950195-2.184082ZM158.2671212,57.458337c1.3833008-1.3696289,2.4165039-3.296875,3.0996094-5.78125.6826172-2.4833984,1.0244141-5.4213867,1.0244141-8.8129883,0-4.8637695-.7910156-8.7358398-2.3720703-11.6132812-1.581543-2.8779297-3.8271484-4.3168945-6.7382812-4.3168945-2.9838867,0-5.2563477,1.4389648-6.8198242,4.3168945-1.5629883,2.8774414-2.3447266,6.7495117-2.3447266,11.6132812,0,3.4262695.3408203,6.3720703,1.0244141,8.8388672.6821289,2.4667969,1.706543,4.3857422,3.0727539,5.7553711,1.3652344,1.3706055,3.0541992,2.0556641,5.0673828,2.0556641,1.9404297,0,3.6025391-.6850586,4.9863281-2.0556641Z"/>
    <path class="cls-8" d="M180.3960275,58.6658565c-2.4443359-1.4555664-4.2949219-3.527832-5.5522461-6.2177734-1.2587891-2.6889648-1.8867188-5.8491211-1.8867188-9.480957,0-3.5283203.6464844-6.5947266,1.9404297-9.1982422s3.1621094-4.6162109,5.6064453-6.0380859c2.4438477-1.4213867,5.3911133-2.1328125,8.8413086-2.1328125s6.3964844.7197266,8.8408203,2.1582031c2.4438477,1.4389648,4.293457,3.4609375,5.5532227,6.0639648,1.2578125,2.6040039,1.8867188,5.6357422,1.8867188,9.0957031,0,3.6660156-.6289062,6.8432617-1.8867188,9.5322266-1.2597656,2.6899414-3.109375,4.762207-5.5532227,6.2177734-2.4443359,1.456543-5.4091797,2.184082-8.8950195,2.184082-3.4863281,0-6.4511719-.7275391-8.8950195-2.184082ZM194.3315743,57.458337c1.3833008-1.3696289,2.4165039-3.296875,3.0996094-5.78125.6826172-2.4833984,1.0244141-5.4213867,1.0244141-8.8129883,0-4.8637695-.7910156-8.7358398-2.3720703-11.6132812-1.581543-2.8779297-3.8271484-4.3168945-6.7382812-4.3168945-2.9838867,0-5.2563477,1.4389648-6.8198242,4.3168945-1.5629883,2.8774414-2.3447266,6.7495117-2.3447266,11.6132812,0,3.4262695.3408203,6.3720703,1.0244141,8.8388672.6821289,2.4667969,1.706543,4.3857422,3.0727539,5.7553711,1.3652344,1.3706055,3.0541992,2.0556641,5.0673828,2.0556641,1.9404297,0,3.6025391-.6850586,4.9863281-2.0556641Z"/>
    <path class="cls-8" d="M214.2510079,28.1160518h-1.1865234l-4.6894531-.9765625v-.8735352h5.8759766v1.8500977ZM208.3750314,60.1819698v-.9248047l4.7441406-.925293h1.1855469v1.8500977h-5.9296875ZM213.0644845,26.2659542h6.6855469v33.9160156h-6.6855469V26.2659542ZM214.8437814,58.38363l2.4794922.4106445h5.8769531c2.659668,0,4.887207-.4189453,6.6850586-1.2587891,1.7958984-.8388672,3.2246094-2.3974609,4.2851562-4.6762695,1.0595703-2.277832,1.5908203-5.4384766,1.5908203-9.480957,0-4.2822266-.4951172-7.5708008-1.4824219-9.8666992-.9892578-2.2944336-2.3642578-3.8540039-4.1240234-4.6762695-1.7617188-.8217773-4.0800781-1.2329102-6.9545898-1.2329102h-6.3076172v-1.3364258h7.1704102c4.4199219,0,8.0136719.6000977,10.78125,1.7988281,2.7675781,1.199707,4.8066406,3.0239258,6.1191406,5.4726562,1.3115234,2.449707,1.9677734,5.6103516,1.9677734,9.480957,0,5.6191406-1.5185547,9.8842773-4.5556641,12.7954102-3.0371094,2.9125977-7.8261719,4.3681641-14.3662109,4.3681641h-9.1655273v-1.7983398Z"/>
  </g>
  <g>
    <path class="cls-10" d="M107.8374337,9.2220089h-3.7822266c-.0844727-.3681641-.1264648-.7548828-.1264648-1.159668,0-.3798828.0419922-.7543945.1264648-1.1225586h10.6699219c.0844727.3681641.1269531.7426758.1269531,1.1225586,0,.4047852-.0424805.7915039-.1269531,1.159668h-3.7817383v10.9506836c-.2539062.0244141-.5073242.0488281-.7607422.0737305-.253418.0244141-.5.0366211-.7397461.0366211-.4931641,0-1.0283203-.0366211-1.6054688-.1103516v-10.9506836Z"/>
    <path class="cls-10" d="M116.8589181,6.9397823c.5351562-.0737305,1.0493164-.1103516,1.5424805-.1103516.5209961,0,1.0419922.0366211,1.5634766.1103516v5.1899414h5.0917969v-5.1899414c.5351562-.0737305,1.0493164-.1103516,1.5424805-.1103516.5209961,0,1.0419922.0366211,1.5634766.1103516v13.2329102c-.5214844.0737305-1.0351562.1103516-1.5424805.1103516-.5068359,0-1.0283203-.0366211-1.5634766-.1103516v-5.7236328h-5.0917969v5.7236328c-.5214844.0737305-1.0351562.1103516-1.5424805.1103516-.5068359,0-1.0283203-.0366211-1.5634766-.1103516V6.9397823Z"/>
    <path class="cls-10" d="M131.1201485,6.9397823h8.6206055c.0844727.3681641.1264648.7426758.1264648,1.1225586,0,.4047852-.0419922.7915039-.1264648,1.159668h-5.5356445v2.8710938h4.3945312c.0844727.3803711.1269531.7607422.1269531,1.1411133s-.0424805.7670898-.1269531,1.1591797h-4.3945312v3.4970703h5.6831055c.0849609.3681641.1269531.7426758.1269531,1.1225586,0,.4052734-.0419922.7915039-.1269531,1.159668h-8.7680664V6.9397823Z"/>
  </g>
  <g>
    <path class="cls-8" d="M255.1831368,56.9187862c-3.234375-2.6206055-4.8515625-6.9799805-4.8515625-13.078125,0-4.1108398.8164062-7.5361328,2.4521484-10.2773438,1.6347656-2.7407227,3.8095703-4.753418,6.5234375-6.0380859,2.7128906-1.284668,5.7050781-1.9272461,8.9755859-1.9272461,2.3720703,0,4.3476562.2915039,5.9296875.8735352,1.5810547.5830078,2.7578125,1.3964844,3.53125,2.440918.7724609,1.0454102,1.1591797,2.2353516,1.1591797,3.5717773,0,1.5078125-.4228516,2.6552734-1.2666016,3.4428711-.8457031.7885742-1.8789062,1.1816406-3.1005859,1.1816406-1.078125,0-2.0039062-.3417969-2.7753906-1.0273438-.7734375-.6850586-1.1777344-1.4560547-1.2138672-2.3125,1.0058594-.1713867,1.8330078-.5219727,2.4804688-1.0537109.6464844-.5307617.9697266-1.2924805.9697266-2.2866211,0-1.0615234-.4404297-1.9013672-1.3203125-2.5180664-.8808594-.6166992-2.09375-.9248047-3.6386719-.9248047-3.7734375,0-6.6308594,1.4643555-8.5712891,4.3935547-1.9414062,2.9291992-2.9111328,7.1000977-2.9111328,12.5126953,0,4.6943359.7988281,8.3764648,2.3984375,11.0483398,1.5986328,2.6723633,4.1953125,4.0083008,7.7900391,4.0083008,1.9404297,0,3.5390625-.3935547,4.7978516-1.1816406v-13.4125977h6.2529297v12.847168c-1.0419922,1.0966797-2.6328125,1.9785156-4.7705078,2.6464844-2.1386719.6679688-4.4121094,1.0019531-6.8193359,1.0019531-4.7802734,0-8.7871094-1.3105469-12.0214844-3.9311523ZM267.3667306,44.4573604v-.9248047h14.1240234l-.0546875.9248047-2.6416016.8735352h-6.1455078l-5.2822266-.8735352Z"/>
    <path class="cls-8" d="M288.8218087,60.1819698h-5.1210938v-.9248047l4.3125-.8222656v-30.4213867l-4.3125-.8222656v-.925293h11.0507812v32.1689453l4.3671875.8222656v.9248047h-10.296875ZM292.4878243,42.3504268h4.9052734c1.8330078,0,3.3330078-.2133789,4.5009766-.6420898,1.1679688-.4282227,2.0576172-1.1899414,2.6689453-2.2871094.6103516-1.0957031.9160156-2.6206055.9160156-4.5732422,0-2.9116211-.7099609-4.8564453-2.1289062-5.8325195-1.4199219-.9765625-3.3339844-1.4648438-5.7412109-1.4648438h-5.1757812l1.5634766-1.284668h3.6123047c5.1025391,0,8.9033203.6772461,11.4013672,2.0297852,2.4980469,1.3540039,3.7470703,3.4863281,3.7470703,6.3979492,0,2.1245117-.5849609,3.8461914-1.7519531,5.1645508-1.1689453,1.3193359-2.9111328,2.2866211-5.2294922,2.9033203s-5.1669922.9248047-8.5449219.9248047h-4.7431641v-1.3359375ZM297.7700509,42.9671261l6.2001953-.5654297,10.1884766,17.7802734h-7.1699219l-9.21875-17.2148438ZM312.9184884,58.486169l4.2050781.8222656v.8735352h-5.1210938l.9160156-1.6958008Z"/>
    <path class="cls-8" d="M322.7837228,60.1819698h-5.1210938v-.9248047l4.3125-.8222656v-30.4213867l-4.3125-.8222656v-.925293h15.4179688v.925293l-4.3671875.8222656v30.4213867l4.3671875.8222656v.9248047h-10.296875Z"/>
    <path class="cls-8" d="M340.1958321,60.1819698h-5.1210938v-.9248047l4.3125-.8222656v-30.4213867l-4.3125-.8222656v-.925293h11.0517578v33.9160156h-5.9306641ZM341.1665353,26.2659542h20.5390625v9.6098633h-.9169922l-3.5039062-8.2734375h-16.1181641v-1.3364258ZM341.1665353,58.7942745h16.3876953l3.5039062-8.2729492h.9169922v9.6606445h-20.8085938v-1.3876953ZM345.8022775,42.6072628h9.0029297l1.6171875-5.2929688h.9160156v11.921875h-.9160156l-1.6171875-5.2412109v-.0512695h-9.0029297v-1.3364258Z"/>
    <path class="cls-8" d="M369.0903634,60.1819698h-5.1210938v-.9248047l4.3125-.8222656v-30.4213867l-4.3125-.8222656v-.925293h11.0507812v32.1689453l4.90625.8222656v.9248047h-10.8359375ZM370.0610665,26.2659542h20.5927734v9.6098633h-.9160156l-3.5048828-8.2734375h-16.171875v-1.3364258ZM374.3198556,42.8128292h9.1103516l1.6171875-5.2929688h.9160156v11.921875h-.9160156l-1.6171875-5.2412109h-9.1103516v-1.3876953Z"/>
  </g>
  <path class="cls-3" d="M78.6760891,23.893121c-.4941656-.846268-4.8835275-11.2486319-8.0474739-18.4568362-1.157189-2.6363451-4.9361107-2.5636771-5.9906319.1147448-4.1121796,10.4446942-11.024431,28.0421805-14.6444191,37.2134612-1.3983538,3.7771498-5.4037664,11.3392277-1.907148,18.8496637.627412,1.3476271,1.4943632,2.5742836,2.4807575,3.6886254,13.2097386,14.9232038,28.1479006,13.9606576,39.5793852-2.0148321,5.9165632-8.2683918.9933591-17.383227-3.1155146-26.0265226-.8385423-1.7639308-3.036768-2.3939564-4.6860825-1.3400716-6.009371,3.839889-12.5591646,15.2432395-12.5587584,21.5081218"/>
  <rect class="cls-6" x="6.7798165" y="110.3982804" width="432" height="129.4812099"/>
  <g>
    <path class="cls-10" d="M298.4409493,201.7332393h-2.984375c-.1005859-.4223633-.1513672-.8808594-.1513672-1.3764648,0-.4804688.0507812-.9248047.1513672-1.3330078h6.6464844v11.5371094c0,1.0634766-.2509766,1.9228516-.7519531,2.578125-.5019531.6557617-1.1835938,1.1293945-2.0449219,1.4204102s-1.8349609.4370117-2.921875.4370117c-.2841797,0-.6396484-.0219727-1.0664062-.0654297-.4257812-.0439453-.8320312-.109375-1.2158203-.1967773-.0175781-.1015625-.0302734-.2036133-.0380859-.3056641-.0087891-.1020508-.0126953-.2114258-.0126953-.328125,0-.640625.1416016-1.3110352.4267578-2.0102539.1835938.0292969.3847656.065918.6015625.109375.2177734.0439453.4433594.0654297.6777344.0654297.3837891,0,.78125-.0361328,1.1914062-.1088867.4091797-.0727539.7607422-.262207,1.0537109-.5683594.2919922-.3056641.4384766-.8007812.4384766-1.4858398v-8.3686523Z"/>
    <path class="cls-10" d="M308.3999337,213.9368526c-1.1542969-.706543-2.0068359-1.6679688-2.5585938-2.8842773s-.828125-2.5966797-.828125-4.140625c0-1.5585938.2763672-2.953125.828125-4.1845703.5517578-1.2304688,1.4042969-2.1992188,2.5585938-2.9057617,1.1533203-.706543,2.6337891-1.0600586,4.4394531-1.0600586s3.2861328.3535156,4.4394531,1.0600586c1.1542969.706543,2.0068359,1.675293,2.5585938,2.9057617.5517578,1.2314453.828125,2.6259766.828125,4.1845703,0,1.5439453-.2763672,2.9243164-.828125,4.140625s-1.4042969,2.1777344-2.5585938,2.8842773c-1.1533203.706543-2.6337891,1.0595703-4.4394531,1.0595703s-3.2861328-.3530273-4.4394531-1.0595703ZM312.8393868,212.3308956c2.5917969,0,3.8876953-1.8061523,3.8876953-5.4189453,0-1.8061523-.3134766-3.1606445-.9404297-4.0644531-.6269531-.902832-1.6015625-1.3544922-2.921875-1.3544922-2.6259766,0-3.9384766,1.8066406-3.9384766,5.4189453,0,3.612793,1.3046875,5.4189453,3.9130859,5.4189453Z"/>
    <path class="cls-10" d="M337.1460275,207.8514034c0,1.4277344-.1923828,2.6767578-.5771484,3.7475586-.3847656,1.0703125-1.0664062,1.9042969-2.0449219,2.5014648-.9775391.5976562-2.3613281.8959961-4.1513672.8959961-1.7724609,0-3.1523438-.2983398-4.1386719-.8959961-.9863281-.597168-1.671875-1.4311523-2.0566406-2.5014648-.3847656-1.0708008-.5771484-2.3198242-.5771484-3.7475586v-8.8276367c.6357422-.0874023,1.2548828-.1308594,1.8564453-.1308594.5849609,0,1.1875.043457,1.8056641.1308594v8.1503906c0,1.1796875.0751953,2.1411133.2265625,2.8842773.1503906.7426758.4511719,1.2929688.9023438,1.6494141.4521484.3574219,1.1123047.5356445,1.9814453.5356445.8701172,0,1.5263672-.1782227,1.9697266-.5356445.4423828-.3564453.7392578-.9067383.890625-1.6494141.1503906-.7431641.2255859-1.7045898.2255859-2.8842773v-8.1503906c.6855469-.0874023,1.2958984-.1308594,1.8310547-.1308594.6181641,0,1.2373047.043457,1.8564453.1308594v8.8276367Z"/>
    <path class="cls-10" d="M340.7065743,199.0237667c.7353516-.0727539,1.4248047-.1342773,2.0693359-.1855469.6435547-.0507812,1.3583984-.0766602,2.1445312-.0766602.9199219,0,1.8271484.0732422,2.7216797.21875s1.7060547.4008789,2.4326172.7646484c.7275391.3642578,1.3085938.8666992,1.7441406,1.5078125.4345703.6411133.6513672,1.449707.6513672,2.425293,0,.7573242-.1416016,1.4091797-.4257812,1.9555664-.2851562.5463867-.6230469.9980469-1.0166016,1.3544922-.3925781.3574219-.7734375.6376953-1.140625.8413086l-.4267578.2407227,4.3896484,6.6420898c-.3349609.0292969-.6855469.0620117-1.0537109.0986328-.3681641.0361328-.7441406.0541992-1.1289062.0541992-.3173828,0-.6308594-.0146484-.9404297-.043457-.3095703-.0292969-.6230469-.0654297-.9404297-.109375l-4.7158203-7.2978516.6025391-.262207c.2333984-.1015625.5136719-.2329102.8398438-.3930664s.6474609-.3608398.9658203-.6010742c.3173828-.2402344.5849609-.5317383.8027344-.8740234.2167969-.3422852.3261719-.7460938.3261719-1.2128906,0-.9174805-.3007812-1.5913086-.9033203-2.0209961-.6015625-.4291992-1.3798828-.6445312-2.3330078-.6445312-.3681641,0-.7021484.0219727-1.0029297.0654297v13.2631836c-.3007812.0288086-.6025391.0581055-.9033203.0874023-.3007812.0288086-.59375.043457-.8779297.043457-.5683594,0-1.1953125-.043457-1.8808594-.1308594v-15.7104492Z"/>
    <path class="cls-10" d="M355.856965,199.0237667c.5351562-.0874023,1.0283203-.1308594,1.4794922-.1308594.5185547,0,1.0371094.043457,1.5556641.1308594l6.9736328,10.0073242v-10.0073242c.6015625-.0874023,1.1787109-.1308594,1.7304688-.1308594.5351562,0,1.0361328.043457,1.5048828.1308594v15.7104492c-.5185547.0874023-1.0029297.1308594-1.4550781.1308594-.4677734,0-.9775391-.043457-1.5302734-.1308594l-7.0234375-9.9853516v9.9853516c-.5185547.0874023-1.0615234.1308594-1.6298828.1308594-.5351562,0-1.0703125-.043457-1.6054688-.1308594v-15.7104492Z"/>
    <path class="cls-10" d="M376.8022775,199.0237667c.3505859-.043457.6845703-.0761719,1.0029297-.0981445.3173828-.0219727.6689453-.0327148,1.0537109-.0327148.3339844,0,.6601562.0107422.9785156.0327148.3173828.0219727.6679688.0546875,1.0527344.0981445l5.6445312,15.7104492c-.6689453.0874023-1.3388672.1308594-2.0068359.1308594-.6357422,0-1.2548828-.043457-1.8564453-.1308594l-1.0029297-3.1464844h-5.9707031l-1.0283203,3.1464844c-.6015625.0874023-1.1787109.1308594-1.7304688.1308594-.6191406,0-1.2294922-.043457-1.8310547-.1308594l5.6943359-15.7104492ZM378.7329415,202.3450558l-2.1816406,6.5986328h4.2636719l-2.0820312-6.5986328Z"/>
    <path class="cls-10" d="M388.5659493,199.0237667c.6357422-.0874023,1.2294922-.1308594,1.78125-.1308594.6015625,0,1.2119141.043457,1.8310547.1308594v12.9575195h6.2460938c.0498047.2475586.0830078.484375.0996094.7099609.0166016.2260742.0253906.440918.0253906.6445312,0,.2333984-.0087891.4624023-.0253906.6884766s-.0498047.4624023-.0996094.7099609h-9.8583984v-15.7104492Z"/>
  </g>
  <g>
    <path class="cls-8" d="M116.2505196,189.0237667c-3.234375-2.6206055-4.8515625-6.9799805-4.8515625-13.078125,0-4.1108398.8168945-7.5361328,2.4526367-10.2773438,1.6347656-2.7407227,3.809082-4.753418,6.5229492-6.0380859,2.7128906-1.284668,5.7050781-1.9272461,8.9755859-1.9272461,2.3720703,0,4.3481445.2915039,5.9301758.8735352,1.5810547.5830078,2.7578125,1.3964844,3.53125,2.440918.7719727,1.0454102,1.1586914,2.2353516,1.1586914,3.5717773,0,1.5078125-.4228516,2.6552734-1.2666016,3.4428711-.8452148.7885742-1.878418,1.1816406-3.1000977,1.1816406-1.078125,0-2.0039062-.3417969-2.7758789-1.0273438-.7734375-.6850586-1.1777344-1.4560547-1.2133789-2.3125,1.0058594-.1713867,1.8330078-.5219727,2.4799805-1.0537109.6469727-.5307617.9702148-1.2924805.9702148-2.2866211,0-1.0615234-.4404297-1.9013672-1.3208008-2.5180664-.8808594-.6166992-2.09375-.9248047-3.6386719-.9248047-3.7734375,0-6.6308594,1.4643555-8.5712891,4.3935547-1.940918,2.9291992-2.9111328,7.1000977-2.9111328,12.5126953,0,4.6943359.7993164,8.3764648,2.3989258,11.0483398,1.5986328,2.6723633,4.1953125,4.0083008,7.7895508,4.0083008,1.940918,0,3.5395508-.3935547,4.7978516-1.1816406v-13.4125977h6.253418v12.847168c-1.0424805,1.0966797-2.6328125,1.9785156-4.7705078,2.6464844-2.1386719.6679688-4.4121094,1.0019531-6.8198242,1.0019531-4.7797852,0-8.7871094-1.3105469-12.0214844-3.9311523ZM128.4341134,176.5623409v-.9248047h14.1240234l-.0541992.9248047-2.6416016.8735352h-6.1455078l-5.2827148-.8735352Z"/>
    <path class="cls-8" d="M152.8540353,190.770837c-2.4443359-1.4555664-4.2949219-3.527832-5.5522461-6.2177734-1.2587891-2.6889648-1.8867188-5.8491211-1.8867188-9.480957,0-3.5283203.6464844-6.5947266,1.9404297-9.1982422s3.1621094-4.6162109,5.6064453-6.0380859c2.4438477-1.4213867,5.3911133-2.1328125,8.8413086-2.1328125s6.3964844.7197266,8.8408203,2.1582031c2.4438477,1.4389648,4.2944336,3.4609375,5.5527344,6.0639648,1.2573242,2.6040039,1.8867188,5.6357422,1.8867188,9.0957031,0,3.6660156-.6293945,6.8432617-1.8867188,9.5322266-1.2583008,2.6899414-3.1088867,4.762207-5.5527344,6.2177734-2.4443359,1.456543-5.4091797,2.184082-8.8950195,2.184082-3.4863281,0-6.4511719-.7275391-8.8950195-2.184082ZM166.7895821,189.5633175c1.3833008-1.3696289,2.4165039-3.296875,3.0996094-5.78125.6826172-2.4833984,1.0244141-5.4213867,1.0244141-8.8129883,0-4.8637695-.7910156-8.7358398-2.3720703-11.6132812-1.581543-2.8779297-3.8271484-4.3168945-6.7382812-4.3168945-2.9838867,0-5.2563477,1.4389648-6.8198242,4.3168945-1.5629883,2.8774414-2.3447266,6.7495117-2.3447266,11.6132812,0,3.4262695.3408203,6.3720703,1.0244141,8.8388672.6821289,2.4667969,1.706543,4.3857422,3.0727539,5.7553711,1.3652344,1.3706055,3.0541992,2.0556641,5.0673828,2.0556641,1.9404297,0,3.6025391-.6850586,4.9863281-2.0556641Z"/>
    <path class="cls-8" d="M188.9184884,190.770837c-2.4443359-1.4555664-4.2949219-3.527832-5.5522461-6.2177734-1.2587891-2.6889648-1.8867188-5.8491211-1.8867188-9.480957,0-3.5283203.6464844-6.5947266,1.9404297-9.1982422s3.1621094-4.6162109,5.6064453-6.0380859c2.4438477-1.4213867,5.3911133-2.1328125,8.8413086-2.1328125s6.3964844.7197266,8.8408203,2.1582031c2.4438477,1.4389648,4.293457,3.4609375,5.5532227,6.0639648,1.2578125,2.6040039,1.8867188,5.6357422,1.8867188,9.0957031,0,3.6660156-.6289062,6.8432617-1.8867188,9.5322266-1.2597656,2.6899414-3.109375,4.762207-5.5532227,6.2177734-2.4443359,1.456543-5.4091797,2.184082-8.8950195,2.184082-3.4863281,0-6.4511719-.7275391-8.8950195-2.184082ZM202.8540353,189.5633175c1.3833008-1.3696289,2.4165039-3.296875,3.0996094-5.78125.6826172-2.4833984,1.0244141-5.4213867,1.0244141-8.8129883,0-4.8637695-.7910156-8.7358398-2.3720703-11.6132812-1.581543-2.8779297-3.8271484-4.3168945-6.7382812-4.3168945-2.9838867,0-5.2563477,1.4389648-6.8198242,4.3168945-1.5629883,2.8774414-2.3447266,6.7495117-2.3447266,11.6132812,0,3.4262695.3408203,6.3720703,1.0244141,8.8388672.6821289,2.4667969,1.706543,4.3857422,3.0727539,5.7553711,1.3652344,1.3706055,3.0541992,2.0556641,5.0673828,2.0556641,1.9404297,0,3.6025391-.6850586,4.9863281-2.0556641Z"/>
    <path class="cls-8" d="M222.7734689,160.2210323h-1.1865234l-4.6894531-.9765625v-.8735352h5.8759766v1.8500977ZM216.8974923,192.2869503v-.9248047l4.7441406-.925293h1.1855469v1.8500977h-5.9296875ZM221.5869454,158.3709347h6.6850586v33.9160156h-6.6850586v-33.9160156ZM223.3662423,190.4886104l2.4790039.4106445h5.8769531c2.6591797,0,4.8867188-.4189453,6.6845703-1.2587891,1.7958984-.8388672,3.2246094-2.3974609,4.2851562-4.6762695,1.0595703-2.277832,1.5908203-5.4384766,1.5908203-9.480957,0-4.2822266-.4951172-7.5708008-1.4824219-9.8666992-.9892578-2.2944336-2.3642578-3.8540039-4.1240234-4.6762695-1.7617188-.8217773-4.0800781-1.2329102-6.9541016-1.2329102h-6.3076172v-1.3364258h7.1699219c4.4199219,0,8.0136719.6000977,10.78125,1.7988281,2.7675781,1.199707,4.8066406,3.0239258,6.1191406,5.4726562,1.3115234,2.449707,1.9677734,5.6103516,1.9677734,9.480957,0,5.6191406-1.5185547,9.8842773-4.5556641,12.7954102-3.0371094,2.9125977-7.8261719,4.3681641-14.3662109,4.3681641h-9.1645508v-1.7983398Z"/>
  </g>
  <g>
    <path class="cls-10" d="M116.3598946,141.3269893h-3.7822266c-.0844727-.3681641-.1264648-.7548828-.1264648-1.159668,0-.3798828.0419922-.7543945.1264648-1.1225586h10.6699219c.0844727.3681641.1269531.7426758.1269531,1.1225586,0,.4047852-.0424805.7915039-.1269531,1.159668h-3.7817383v10.9506836c-.2539062.0244141-.5073242.0488281-.7607422.0737305-.253418.0244141-.5.0366211-.7397461.0366211-.4931641,0-1.0283203-.0366211-1.6054688-.1103516v-10.9506836Z"/>
    <path class="cls-10" d="M125.381379,139.0447628c.5351562-.0737305,1.0493164-.1103516,1.5424805-.1103516.5209961,0,1.0419922.0366211,1.5634766.1103516v5.1899414h5.0917969v-5.1899414c.5351562-.0737305,1.0493164-.1103516,1.5424805-.1103516.5209961,0,1.0419922.0366211,1.5634766.1103516v13.2329102c-.5214844.0737305-1.0351562.1103516-1.5424805.1103516-.5068359,0-1.0283203-.0366211-1.5634766-.1103516v-5.7236328h-5.0917969v5.7236328c-.5214844.0737305-1.0351562.1103516-1.5424805.1103516-.5068359,0-1.0283203-.0366211-1.5634766-.1103516v-13.2329102Z"/>
    <path class="cls-10" d="M139.6426095,139.0447628h8.6206055c.0844727.3681641.1264648.7426758.1264648,1.1225586,0,.4047852-.0419922.7915039-.1264648,1.159668h-5.5356445v2.8710938h4.3945312c.0844727.3803711.1269531.7607422.1269531,1.1411133s-.0424805.7670898-.1269531,1.1591797h-4.3945312v3.4970703h5.6831055c.0849609.3681641.1269531.7426758.1269531,1.1225586,0,.4052734-.0419922.7915039-.1269531,1.159668h-8.7680664v-13.2329102Z"/>
  </g>
  <g>
    <path class="cls-8" d="M263.7055978,189.0237667c-3.234375-2.6206055-4.8515625-6.9799805-4.8515625-13.078125,0-4.1108398.8164062-7.5361328,2.4521484-10.2773438,1.6347656-2.7407227,3.8095703-4.753418,6.5234375-6.0380859,2.7128906-1.284668,5.7050781-1.9272461,8.9755859-1.9272461,2.3720703,0,4.3476562.2915039,5.9296875.8735352,1.5810547.5830078,2.7578125,1.3964844,3.53125,2.440918.7724609,1.0454102,1.1591797,2.2353516,1.1591797,3.5717773,0,1.5078125-.4228516,2.6552734-1.2666016,3.4428711-.8457031.7885742-1.8789062,1.1816406-3.1005859,1.1816406-1.078125,0-2.0039062-.3417969-2.7753906-1.0273438-.7734375-.6850586-1.1777344-1.4560547-1.2138672-2.3125,1.0058594-.1713867,1.8330078-.5219727,2.4804688-1.0537109.6464844-.5307617.9697266-1.2924805.9697266-2.2866211,0-1.0615234-.4404297-1.9013672-1.3203125-2.5180664-.8808594-.6166992-2.09375-.9248047-3.6386719-.9248047-3.7734375,0-6.6308594,1.4643555-8.5712891,4.3935547-1.9414062,2.9291992-2.9111328,7.1000977-2.9111328,12.5126953,0,4.6943359.7988281,8.3764648,2.3984375,11.0483398,1.5986328,2.6723633,4.1953125,4.0083008,7.7900391,4.0083008,1.9404297,0,3.5390625-.3935547,4.7978516-1.1816406v-13.4125977h6.2529297v12.847168c-1.0419922,1.0966797-2.6328125,1.9785156-4.7705078,2.6464844-2.1386719.6679688-4.4121094,1.0019531-6.8193359,1.0019531-4.7802734,0-8.7871094-1.3105469-12.0214844-3.9311523ZM275.8891915,176.5623409v-.9248047h14.1240234l-.0546875.9248047-2.6416016.8735352h-6.1455078l-5.2822266-.8735352Z"/>
    <path class="cls-8" d="M297.3442696,192.2869503h-5.1210938v-.9248047l4.3125-.8222656v-30.4213867l-4.3125-.8222656v-.925293h11.0507812v32.1689453l4.3671875.8222656v.9248047h-10.296875ZM301.0102853,174.4554073h4.9052734c1.8330078,0,3.3330078-.2133789,4.5009766-.6420898,1.1679688-.4282227,2.0576172-1.1899414,2.6689453-2.2871094.6103516-1.0957031.9160156-2.6206055.9160156-4.5732422,0-2.9116211-.7099609-4.8564453-2.1289062-5.8325195-1.4199219-.9765625-3.3339844-1.4648438-5.7412109-1.4648438h-5.1757812l1.5634766-1.284668h3.6123047c5.1025391,0,8.9033203.6772461,11.4013672,2.0297852,2.4980469,1.3540039,3.7470703,3.4863281,3.7470703,6.3979492,0,2.1245117-.5849609,3.8461914-1.7519531,5.1645508-1.1689453,1.3193359-2.9111328,2.2866211-5.2294922,2.9033203s-5.1669922.9248047-8.5449219.9248047h-4.7431641v-1.3359375ZM306.2925118,175.0721065l6.2001953-.5654297,10.1884766,17.7802734h-7.1699219l-9.21875-17.2148438ZM321.4409493,190.5911495l4.2050781.8222656v.8735352h-5.1210938l.9160156-1.6958008Z"/>
    <path class="cls-8" d="M331.3061837,192.2869503h-5.1210938v-.9248047l4.3125-.8222656v-30.4213867l-4.3125-.8222656v-.925293h15.4179688v.925293l-4.3671875.8222656v30.4213867l4.3671875.8222656v.9248047h-10.296875Z"/>
    <path class="cls-8" d="M348.7182931,192.2869503h-5.1210938v-.9248047l4.3125-.8222656v-30.4213867l-4.3125-.8222656v-.925293h11.0517578v33.9160156h-5.9306641ZM349.6889962,158.3709347h20.5390625v9.6098633h-.9169922l-3.5039062-8.2734375h-16.1181641v-1.3364258ZM349.6889962,190.899255h16.3876953l3.5039062-8.2729492h.9169922v9.6606445h-20.8085938v-1.3876953ZM354.3247384,174.7122433h9.0029297l1.6171875-5.2929688h.9160156v11.921875h-.9160156l-1.6171875-5.2412109v-.0512695h-9.0029297v-1.3364258Z"/>
    <path class="cls-8" d="M377.6128243,192.2869503h-5.1210938v-.9248047l4.3125-.8222656v-30.4213867l-4.3125-.8222656v-.925293h11.0507812v32.1689453l4.90625.8222656v.9248047h-10.8359375ZM378.5835275,158.3709347h20.5927734v9.6098633h-.9160156l-3.5048828-8.2734375h-16.171875v-1.3364258ZM382.8423165,174.9178097h9.1103516l1.6171875-5.2929688h.9160156v11.921875h-.9160156l-1.6171875-5.2412109h-9.1103516v-1.3876953Z"/>
  </g>
  <path class="cls-3" d="M83.9108396,155.3273772c-.4941656-.846268-4.8835275-11.2486319-8.0474739-18.4568362-1.157189-2.6363451-4.9361107-2.5636771-5.9906319.1147448-4.1121796,10.4446942-11.024431,28.0421805-14.6444191,37.2134612-1.3983538,3.7771498-5.4037664,11.3392277-1.907148,18.8496637.627412,1.3476271,1.4943632,2.5742836,2.4807575,3.6886254,13.2097386,14.9232038,28.1479006,13.9606576,39.5793852-2.0148321,5.9165632-8.2683918.9933591-17.383227-3.1155146-26.0265226-.8385423-1.7639308-3.036768-2.3939564-4.6860825-1.3400716-6.009371,3.839889-12.5591646,15.2432395-12.5587584,21.5081218"/>
  <g>
    <path class="cls-9" d="M63.4580392,373.8284542c-2.3178711-1.8789062-3.4765625-5.0019531-3.4765625-9.3720703,0-2.9462891.5854492-5.4003906,1.7573242-7.3652344,1.171875-1.9628906,2.7294922-3.4052734,4.6743164-4.3261719,1.9443359-.9208984,4.0883789-1.3808594,6.4321289-1.3808594,1.699707,0,3.1157227.2089844,4.2490234.6259766,1.1333008.4179688,1.9765625,1,2.5307617,1.7490234.5532227.7490234.8300781,1.6015625.8300781,2.5595703,0,1.0800781-.3027344,1.9023438-.9077148,2.4667969-.6054688.5654297-1.3457031.8466797-2.2211914.8466797-.7724609,0-1.4360352-.2451172-1.9892578-.7363281-.5541992-.4902344-.84375-1.0429688-.8691406-1.6572266.7207031-.1220703,1.3134766-.3740234,1.7768555-.7548828.4633789-.3798828.6953125-.9257812.6953125-1.6386719,0-.7607422-.3154297-1.3623047-.9462891-1.8037109-.6313477-.4423828-1.5004883-.6630859-2.6079102-.6630859-2.7041016,0-4.7514648,1.0498047-6.1420898,3.1484375s-2.0859375,5.0878906-2.0859375,8.9667969c0,3.3632812.5727539,6.0019531,1.7192383,7.9169922,1.1455078,1.9150391,3.0063477,2.8720703,5.5820312,2.8720703,1.390625,0,2.5361328-.2822266,3.4379883-.8466797v-9.6113281h4.480957v9.2060547c-.7470703.7861328-1.8867188,1.4179688-3.418457,1.8964844-1.5327148.4785156-3.1616211.7177734-4.8867188.7177734-3.4257812,0-6.296875-.9384766-8.6147461-2.8164062ZM72.1885079,364.8977901v-.6621094h10.1210938l-.0385742.6621094-1.8930664.6269531h-4.4038086l-3.7856445-.6269531Z"/>
    <path class="cls-9" d="M89.6875314,375.0804073c-1.7514648-1.0439453-3.0776367-2.5283203-3.9785156-4.4560547-.9018555-1.9267578-1.3520508-4.1914062-1.3520508-6.7939453,0-2.5283203.4633789-4.7255859,1.390625-6.5917969.9267578-1.8652344,2.265625-3.3076172,4.0175781-4.3261719,1.7509766-1.0185547,3.862793-1.5283203,6.3354492-1.5283203,2.472168,0,4.5834961.515625,6.3349609,1.546875,1.7509766,1.0302734,3.0771484,2.4794922,3.9790039,4.3447266.9013672,1.8662109,1.3520508,4.0380859,1.3520508,6.5175781,0,2.6269531-.4506836,4.9042969-1.3520508,6.8310547-.9018555,1.9277344-2.2280273,3.4121094-3.9790039,4.4560547-1.7514648,1.0429688-3.8759766,1.5644531-6.3740234,1.5644531s-4.6225586-.5214844-6.3740234-1.5644531ZM99.6738595,374.2141964c.9907227-.9814453,1.7314453-2.3623047,2.2211914-4.1425781.4887695-1.7792969.7338867-3.8847656.7338867-6.3144531,0-3.4863281-.5668945-6.2607422-1.699707-8.3222656-1.1337891-2.0625-2.7426758-3.09375-4.8286133-3.09375-2.1381836,0-3.7666016,1.03125-4.887207,3.09375-1.1201172,2.0615234-1.6801758,4.8359375-1.6801758,8.3222656,0,2.4550781.2446289,4.5654297.7338867,6.3330078.4887695,1.7675781,1.2231445,3.1425781,2.2021484,4.1240234.9785156.9824219,2.1884766,1.4736328,3.6313477,1.4736328,1.390625,0,2.581543-.4912109,3.5732422-1.4736328Z"/>
    <path class="cls-9" d="M115.5307931,375.0804073c-1.7514648-1.0439453-3.0776367-2.5283203-3.9785156-4.4560547-.9018555-1.9267578-1.3520508-4.1914062-1.3520508-6.7939453,0-2.5283203.4633789-4.7255859,1.390625-6.5917969.9267578-1.8652344,2.265625-3.3076172,4.0175781-4.3261719,1.7509766-1.0185547,3.862793-1.5283203,6.3354492-1.5283203,2.472168,0,4.5834961.515625,6.3349609,1.546875,1.7509766,1.0302734,3.0771484,2.4794922,3.9790039,4.3447266.9013672,1.8662109,1.3520508,4.0380859,1.3520508,6.5175781,0,2.6269531-.4506836,4.9042969-1.3520508,6.8310547-.9018555,1.9277344-2.2280273,3.4121094-3.9790039,4.4560547-1.7514648,1.0429688-3.8759766,1.5644531-6.3740234,1.5644531s-4.6225586-.5214844-6.3740234-1.5644531ZM125.5171212,374.2141964c.9907227-.9814453,1.7314453-2.3623047,2.2211914-4.1425781.4887695-1.7792969.7338867-3.8847656.7338867-6.3144531,0-3.4863281-.5668945-6.2607422-1.699707-8.3222656-1.1337891-2.0625-2.7426758-3.09375-4.8286133-3.09375-2.1381836,0-3.7666016,1.03125-4.887207,3.09375-1.1201172,2.0615234-1.6801758,4.8359375-1.6801758,8.3222656,0,2.4550781.2446289,4.5654297.7338867,6.3330078.4887695,1.7675781,1.2231445,3.1425781,2.2021484,4.1240234.9785156.9824219,2.1884766,1.4736328,3.6313477,1.4736328,1.390625,0,2.581543-.4912109,3.5732422-1.4736328Z"/>
    <path class="cls-9" d="M139.791047,353.1878292h-.8500977l-3.3608398-.6992188v-.6259766h4.2109375v1.3251953ZM135.5801095,376.1663448v-.6630859l3.3994141-.6621094h.8500977v1.3251953h-4.2495117ZM138.9409493,351.8626339h4.7900391v24.3037109h-4.7900391v-24.3037109ZM140.2158517,374.8772823l1.7768555.2949219h4.2109375c1.9052734,0,3.5019531-.3007812,4.7900391-.9023438,1.2875977-.6015625,2.3110352-1.7177734,3.0712891-3.3505859.7592773-1.6328125,1.1396484-3.8974609,1.1396484-6.7939453,0-3.0683594-.3544922-5.4257812-1.0625-7.0703125-.7084961-1.6445312-1.6938477-2.7617188-2.9550781-3.3515625-1.262207-.5888672-2.9233398-.8837891-4.9833984-.8837891h-4.5200195v-.9570312h5.1381836c3.1674805,0,5.7426758.4296875,7.7260742,1.2890625,1.9824219.859375,3.4438477,2.1669922,4.3842773,3.921875.9399414,1.7548828,1.4101562,4.0195312,1.4101562,6.7939453,0,4.0263672-1.0883789,7.0820312-3.2641602,9.1689453-2.1767578,2.0869141-5.6083984,3.1298828-10.2949219,3.1298828h-6.5673828v-1.2890625Z"/>
  </g>
  <g>
    <path class="cls-9" d="M169.1230782,373.8284542c-2.3178711-1.8789062-3.4765625-5.0019531-3.4765625-9.3720703,0-2.9462891.5854492-5.4003906,1.7573242-7.3652344,1.171875-1.9628906,2.7294922-3.4052734,4.6743164-4.3261719,1.9443359-.9208984,4.0883789-1.3808594,6.4321289-1.3808594,1.699707,0,3.1157227.2089844,4.2490234.6259766,1.1333008.4179688,1.9765625,1,2.5307617,1.7490234.5532227.7490234.8300781,1.6015625.8300781,2.5595703,0,1.0800781-.3027344,1.9023438-.9077148,2.4667969-.6054688.5654297-1.3457031.8466797-2.2211914.8466797-.7724609,0-1.4360352-.2451172-1.9892578-.7363281-.5541992-.4902344-.84375-1.0429688-.8691406-1.6572266.7207031-.1220703,1.3134766-.3740234,1.7768555-.7548828.4633789-.3798828.6953125-.9257812.6953125-1.6386719,0-.7607422-.3154297-1.3623047-.9462891-1.8037109-.6313477-.4423828-1.5004883-.6630859-2.6079102-.6630859-2.7041016,0-4.7514648,1.0498047-6.1420898,3.1484375s-2.0859375,5.0878906-2.0859375,8.9667969c0,3.3632812.5727539,6.0019531,1.7192383,7.9169922,1.1455078,1.9150391,3.0063477,2.8720703,5.5820312,2.8720703,1.390625,0,2.5361328-.2822266,3.4379883-.8466797v-9.6113281h4.480957v9.2060547c-.7470703.7861328-1.8867188,1.4179688-3.418457,1.8964844-1.5327148.4785156-3.1616211.7177734-4.8867188.7177734-3.4257812,0-6.296875-.9384766-8.6147461-2.8164062ZM177.853547,364.8977901v-.6621094h10.1210938l-.0385742.6621094-1.8930664.6269531h-4.4038086l-3.7856445-.6269531Z"/>
    <path class="cls-9" d="M193.2280587,376.1663448h-3.6699219v-.6630859l3.090332-.5888672v-21.7998047l-3.090332-.5888672v-.6630859h7.9194336v23.0517578l3.1289062.5888672v.6630859h-7.378418ZM195.8550118,363.3880245h3.5151367c1.3134766,0,2.3886719-.1523438,3.2255859-.4599609.8369141-.3066406,1.4741211-.8525391,1.9125977-1.6386719.4375-.7851562.6567383-1.8779297.6567383-3.2773438,0-2.0859375-.5087891-3.4794922-1.5258789-4.1796875-1.0180664-.6992188-2.3891602-1.0488281-4.1142578-1.0488281h-3.7084961l1.1201172-.9208984h2.5883789c3.6567383,0,6.3798828.4853516,8.1704102,1.4541016,1.7895508.9707031,2.6845703,2.4990234,2.6845703,4.5849609,0,1.5224609-.4189453,2.7558594-1.2553711,3.7011719-.8374023.9453125-2.0859375,1.6386719-3.7470703,2.0800781-1.6611328.4423828-3.7026367.6630859-6.1230469.6630859h-3.3994141v-.9580078ZM199.6406564,363.8304073l4.4423828-.4052734,7.3012695,12.7412109h-5.1376953l-6.605957-12.3359375ZM210.4956368,374.9515011l3.0131836.5888672v.6259766h-3.6694336l.65625-1.2148438Z"/>
    <path class="cls-9" d="M217.5649728,376.1663448h-3.6699219v-.6630859l3.090332-.5888672v-21.7998047l-3.090332-.5888672v-.6630859h11.0478516v.6630859l-3.128418.5888672v21.7998047l3.128418.5888672v.6630859h-7.3779297Z"/>
    <path class="cls-9" d="M230.0425118,376.1663448h-3.6699219v-.6630859l3.0898438-.5888672v-21.7998047l-3.0898438-.5888672v-.6630859h7.9189453v24.3037109h-4.2490234ZM230.7378243,351.8626339h14.7177734v6.8857422h-.65625l-2.5107422-5.9287109h-11.5507812v-.9570312ZM230.7378243,375.1722042h11.7431641l2.5117188-5.9287109h.65625v6.9228516h-14.9111328v-.9941406ZM234.06009,363.5725948h6.4511719l1.1591797-3.7929688h.65625v8.5429688h-.65625l-1.1591797-3.7558594v-.0371094h-6.4511719v-.9570312Z"/>
    <path class="cls-9" d="M250.7485665,376.1663448h-3.6708984v-.6630859l3.0908203-.5888672v-21.7998047l-3.0908203-.5888672v-.6630859h7.9199219v23.0517578l3.515625.5888672v.6630859h-7.7646484ZM251.443879,351.8626339h14.7568359v6.8857422h-.6572266l-2.5107422-5.9287109h-11.5888672v-.9570312ZM254.4956368,363.7200558h6.5283203l1.1591797-3.7929688h.65625v8.5429688h-.65625l-1.1591797-3.7558594h-6.5283203v-.9941406Z"/>
  </g>
  <g>
    <path class="cls-10" d="M105.9678048,384.4973995h-3.3911133c-.1142578-.4794922-.1713867-1.0009766-.1713867-1.5644531,0-.5458984.0571289-1.0507812.1713867-1.5136719h7.5517578v13.1074219c0,1.2080078-.2851562,2.1845703-.8549805,2.9287109-.5698242.7451172-1.3442383,1.2832031-2.3227539,1.6142578-.9785156.3300781-2.0849609.4960938-3.3198242.4960938-.3232422,0-.7265625-.0244141-1.2109375-.0742188-.4848633-.0498047-.9458008-.1240234-1.3823242-.2236328-.019043-.1152344-.0336914-.2314453-.0429688-.3476562-.0097656-.1152344-.0141602-.2392578-.0141602-.3720703,0-.7285156.1611328-1.4892578.484375-2.2841797.2089844.0332031.4370117.0742188.684082.1240234.246582.0498047.503418.0751953.7695312.0751953.4370117,0,.8876953-.0419922,1.3535156-.125.465332-.0820312.8642578-.2978516,1.1972656-.6455078.3320312-.3466797.4985352-.9091797.4985352-1.6875v-9.5078125Z"/>
    <path class="cls-10" d="M117.2817696,398.3616573c-1.3110352-.8027344-2.2797852-1.8945312-2.9067383-3.2763672s-.9404297-2.9501953-.9404297-4.7041016c0-1.7714844.3134766-3.3554688.9404297-4.7539062s1.5957031-2.4990234,2.9067383-3.3017578,2.9921875-1.2041016,5.0439453-1.2041016c2.0522461,0,3.7333984.4013672,5.0444336,1.2041016s2.2797852,1.9033203,2.9067383,3.3017578.9404297,2.9824219.9404297,4.7539062c0,1.7539062-.3134766,3.3222656-.9404297,4.7041016s-1.5957031,2.4736328-2.9067383,3.2763672-2.9921875,1.2041016-5.0444336,1.2041016c-2.0517578,0-3.7329102-.4013672-5.0439453-1.2041016ZM122.325715,396.5374386c2.9448242,0,4.4174805-2.0517578,4.4174805-6.15625,0-2.0527344-.3564453-3.5917969-1.0688477-4.6181641-.7124023-1.0253906-1.8193359-1.5390625-3.3198242-1.5390625-2.9829102,0-4.4746094,2.0527344-4.4746094,6.1572266s1.4819336,6.15625,4.4458008,6.15625Z"/>
    <path class="cls-10" d="M149.940461,391.4485714c0,1.6220703-.21875,3.0410156-.6552734,4.2568359-.4375,1.2167969-1.2114258,2.1640625-2.3227539,2.8427734s-2.6835938,1.0175781-4.7167969,1.0175781c-2.0136719,0-3.5810547-.3388672-4.7021484-1.0175781s-1.8999023-1.6259766-2.3369141-2.8427734c-.4370117-1.2158203-.6552734-2.6347656-.6552734-4.2568359v-10.0292969c.7216797-.0996094,1.4248047-.1494141,2.1088867-.1494141.6650391,0,1.3486328.0498047,2.0517578.1494141v9.2597656c0,1.3398438.0854492,2.4326172.2568359,3.2763672.1708984.84375.5126953,1.46875,1.0258789,1.8740234.5126953.40625,1.2631836.6083984,2.2509766.6083984s1.7338867-.2021484,2.2373047-.6083984c.503418-.4052734.8408203-1.0302734,1.0117188-1.8740234s.2563477-1.9365234.2563477-3.2763672v-9.2597656c.7788086-.0996094,1.472168-.1494141,2.0805664-.1494141.7026367,0,1.4057617.0498047,2.1088867.1494141v10.0292969Z"/>
    <path class="cls-10" d="M153.9868478,381.4192745c.8359375-.0830078,1.6196289-.1533203,2.3510742-.2109375s1.543457-.0869141,2.4365234-.0869141c1.0449219,0,2.0756836.0830078,3.0922852.2480469,1.0161133.1660156,1.9379883.4550781,2.7641602.8691406.8266602.4130859,1.4863281.984375,1.980957,1.7128906.4936523.7285156.7407227,1.6464844.7407227,2.7548828,0,.8613281-.1616211,1.6015625-.484375,2.2216797-.3232422.6210938-.7080078,1.1337891-1.1542969,1.5390625-.4467773.40625-.8789062.7246094-1.296875.9560547l-.484375.2734375,4.9873047,7.546875c-.3803711.0322266-.7792969.0693359-1.1967773.1113281-.418457.0410156-.8457031.0625-1.2827148.0625-.3608398,0-.7172852-.0175781-1.0683594-.0498047-.3520508-.0332031-.7080078-.0751953-1.0688477-.1240234l-5.3579102-8.2919922.684082-.2978516c.2661133-.1152344.5844727-.2646484.9545898-.4462891.3706055-.1826172.7363281-.4101562,1.097168-.6826172.3608398-.2734375.6650391-.6044922.9121094-.9931641.246582-.3886719.3706055-.8486328.3706055-1.3779297,0-1.0429688-.3417969-1.8076172-1.0258789-2.2958984s-1.5673828-.7324219-2.6503906-.7324219c-.4179688,0-.7978516.0244141-1.1401367.0742188v15.0683594c-.3417969.0332031-.6835938.0664062-1.0258789.0996094-.3417969.0322266-.6743164.0498047-.9975586.0498047-.6459961,0-1.3583984-.0498047-2.137207-.1494141v-17.8486328Z"/>
    <path class="cls-10" d="M171.1997384,381.4192745c.6074219-.0996094,1.1679688-.1494141,1.6811523-.1494141.5888672,0,1.1777344.0498047,1.7670898.1494141l7.9223633,11.3691406v-11.3691406c.684082-.0996094,1.3393555-.1494141,1.9663086-.1494141.6079102,0,1.1777344.0498047,1.7099609.1494141v17.8486328c-.5893555.0996094-1.1401367.1494141-1.652832.1494141-.5322266,0-1.1113281-.0498047-1.7382812-.1494141l-7.9794922-11.3447266v11.3447266c-.5893555.0996094-1.2070312.1494141-1.8525391.1494141-.6083984,0-1.2163086-.0498047-1.8237305-.1494141v-17.8486328Z"/>
    <path class="cls-10" d="M194.9956368,381.4192745c.3989258-.0498047.7788086-.0869141,1.1401367-.1123047.3608398-.0244141.7597656-.0371094,1.1967773-.0371094.3798828,0,.7504883.0126953,1.1113281.0371094.3608398.0253906.7597656.0625,1.1972656.1123047l6.4121094,17.8486328c-.7602539.0996094-1.5205078.1494141-2.2797852.1494141-.7226562,0-1.425293-.0498047-2.1088867-.1494141l-1.1401367-3.5751953h-6.7827148l-1.168457,3.5751953c-.6835938.0996094-1.3393555.1494141-1.9663086.1494141-.703125,0-1.3964844-.0498047-2.0800781-.1494141l6.46875-17.8486328ZM197.1899728,385.192712l-2.4790039,7.4970703h4.8447266l-2.3657227-7.4970703Z"/>
    <path class="cls-10" d="M208.3613595,381.4192745c.7216797-.0996094,1.3959961-.1494141,2.0229492-.1494141.684082,0,1.3774414.0498047,2.0805664.1494141v14.7207031h7.0961914c.0571289.28125.0947266.5507812.1137695.8066406.019043.2568359.0288086.5009766.0288086.7324219,0,.2646484-.0097656.5253906-.0288086.7822266s-.0566406.5253906-.1137695.8066406h-11.199707v-17.8486328Z"/>
  </g>
  <g>
    <path class="cls-10" d="M64.5395821,335.9251339h-3.8857422c-.0869141-.3779297-.1303711-.7753906-.1303711-1.1914062,0-.3896484.043457-.7744141.1303711-1.1533203h10.9619141c.0869141.3789062.1303711.7636719.1303711,1.1533203,0,.4160156-.043457.8134766-.1303711,1.1914062h-3.8852539v11.2509766c-.2607422.0253906-.5209961.0498047-.7817383.0751953-.2602539.0253906-.5136719.0380859-.7597656.0380859-.5063477,0-1.0561523-.0380859-1.6494141-.1132812v-11.2509766Z"/>
    <path class="cls-10" d="M73.8081368,333.5804073c.5498047-.0751953,1.0776367-.1132812,1.5844727-.1132812.5351562,0,1.0708008.0380859,1.6064453.1132812v5.3330078h5.2314453v-5.3330078c.5498047-.0751953,1.0776367-.1132812,1.5844727-.1132812.5351562,0,1.0708008.0380859,1.6064453.1132812v13.5957031c-.5356445.0751953-1.0639648.1132812-1.5844727.1132812-.5209961,0-1.0566406-.0380859-1.6064453-.1132812v-5.8808594h-5.2314453v5.8808594c-.5356445.0751953-1.0634766.1132812-1.5844727.1132812s-1.0566406-.0380859-1.6064453-.1132812v-13.5957031Z"/>
    <path class="cls-10" d="M88.4599923,333.5804073h8.8564453c.0869141.3789062.1303711.7636719.1303711,1.1533203,0,.4160156-.043457.8134766-.1303711,1.1914062h-5.6875v2.9501953h4.5151367c.0869141.390625.1303711.78125.1303711,1.171875,0,.3916016-.043457.7880859-.1303711,1.1914062h-4.5151367v3.5927734h5.8393555c.0869141.3779297.1303711.7626953.1303711,1.1533203,0,.4160156-.043457.8134766-.1303711,1.1914062h-9.0083008v-13.5957031Z"/>
  </g>
  <path class="cls-3" d="M168.9100677,291.11224c-.474658-.8128609-4.6907463-10.8045829-7.7297933-17.7282375-1.111508-2.5322732-4.7412536-2.4624739-5.7541468.1102151-3.9498479,10.0323813-10.5892325,26.9351924-14.0663186,35.7444292-1.3431527,3.6280437-5.1904483,10.8916023-1.8318618,18.1055577.6026444,1.2944284,1.435372,2.4726616,2.3828276,3.5430139,12.6882733,14.3340981,27.0367391,13.4095491,38.0169565-1.935295,5.683002-7.9419903.9541454-16.6970098-2.9925271-24.9991043-.8054401-1.6942982-2.9168891-2.299453-4.5010956-1.2871712-5.7721461,3.6883062-12.0633812,14.6415001-12.0629911,20.659071"/>
  <rect class="cls-8" x="295.3877878" y="477.6961911" width="181.3598492" height="105.4242082" transform="translate(-144.3405828 916.4760076) rotate(-90)"/>
  <rect class="cls-7" x="327.1644461" y="328.1130002" width="117.8065326" height="105.4242082" transform="translate(5.2426081 766.8928167) rotate(-90)"/>
  <rect class="cls-10" x="360.8688705" y="244.010892" width="50.3976838" height="105.4242082" transform="translate(89.3447163 682.7907085) rotate(-90)"/>
  <rect class="cls-6" x="374.9553631" y="207.8728887" width="22.2246985" height="105.4242082" transform="translate(125.4827195 646.6527052) rotate(-90)"/>
  <g>
    <path class="cls-1" d="M337.7671212,614.2962276h-.7314453v-.7617188h.8134766l.1445312-1.4628906h-.7314453v-.7626953h.8134766l.2060547-1.9873047h.8134766l-.2060547,1.9873047h1.2363281l.2060547-1.9873047h.8027344l-.2060547,1.9873047h.7216797v.7626953h-.8037109l-.1445312,1.4628906h.7216797v.7617188h-.8037109l-.1953125,1.9775391h-.8144531l.2060547-1.9775391h-1.2353516l-.2060547,1.9775391h-.8037109l.1962891-1.9775391ZM339.888215,613.5345089l.1542969-1.4628906h-1.2353516l-.1542969,1.4628906h1.2353516Z"/>
    <path class="cls-1" d="M342.7700509,615.2434933c.3505859.1757812.90625.3818359,1.4111328.3818359,1.0507812,0,1.4941406-.6083984,1.4941406-1.421875,0-.8242188-.5253906-1.3701172-1.3701172-1.3701172h-.5664062v-.7001953h.5556641c.7421875,0,1.1640625-.484375,1.1640625-1.1640625,0-.5869141-.3398438-1.1533203-1.2460938-1.1533203-.4326172,0-.7929688.1035156-1.1738281.2675781l-.2578125-.6689453c.4423828-.2060547.9267578-.3603516,1.5136719-.3603516,1.2978516,0,2.1220703.7929688,2.1220703,1.8847656,0,.6484375-.3808594,1.2460938-1.0195312,1.5136719.8544922.2880859,1.2460938,1.0400391,1.2460938,1.7509766,0,1.2568359-.9169922,2.1835938-2.4101562,2.1835938-.6796875,0-1.3291016-.2470703-1.7197266-.453125l.2568359-.6904297Z"/>
    <path class="cls-1" d="M349.4848946,613.3694698l1.0917969-.0517578v-.453125c0-.7519531-.2578125-1.1123047-.9990234-1.1123047-.4228516,0-.9169922.1650391-1.2880859.3603516l-.3291016-.6591797c.4326172-.2373047,1.0087891-.4638672,1.6376953-.4638672,1.2353516,0,1.8847656.7011719,1.8847656,1.8857422v3.3984375h-.7832031l-.0410156-.4941406h-.0410156c-.2988281.3496094-.8037109.6074219-1.390625.6074219-.9375,0-1.5761719-.6386719-1.5761719-1.5244141,0-.9882812.8857422-1.4414062,1.8339844-1.4931641ZM349.3921212,615.6350948c.4326172,0,.8652344-.2265625,1.1845703-.5146484v-1.1748047l-.9482422.0517578c-.7099609.03125-1.0087891.3505859-1.0087891.8554688,0,.421875.2675781.7822266.7724609.7822266Z"/>
    <path class="cls-1" d="M352.8198556,615.2434933c.3505859.1757812.90625.3818359,1.4111328.3818359,1.0507812,0,1.4941406-.6083984,1.4941406-1.421875,0-.8242188-.5253906-1.3701172-1.3701172-1.3701172h-.5664062v-.7001953h.5556641c.7421875,0,1.1640625-.484375,1.1640625-1.1640625,0-.5869141-.3398438-1.1533203-1.2460938-1.1533203-.4326172,0-.7929688.1035156-1.1738281.2675781l-.2578125-.6689453c.4423828-.2060547.9267578-.3603516,1.5136719-.3603516,1.2978516,0,2.1220703.7929688,2.1220703,1.8847656,0,.6484375-.3808594,1.2460938-1.0195312,1.5136719.8544922.2880859,1.2460938,1.0400391,1.2460938,1.7509766,0,1.2568359-.9169922,2.1835938-2.4101562,2.1835938-.6796875,0-1.3291016-.2470703-1.7197266-.453125l.2568359-.6904297Z"/>
    <path class="cls-1" d="M357.5054025,614.1419308l2.8730469-4.9746094h1.1748047v4.8408203h.9785156v.7519531h-.9785156v1.5136719l-.9169922.1132812v-1.6269531h-3.0078125l-.1230469-.6181641ZM360.6362618,614.0081417v-3.8115234l-2.2138672,3.8115234h2.2138672Z"/>
    <path class="cls-1" d="M363.3432931,612.8753292c0-2.1015625.8144531-3.8212891,2.75-3.8212891.5458984,0,1.0410156.1337891,1.4736328.3398438l-.2685547.6894531c-.390625-.1748047-.7412109-.2675781-1.1943359-.2675781-1.2050781,0-1.6894531,1.0712891-1.7822266,2.5546875.3603516-.3603516.9580078-.6699219,1.5869141-.6699219,1.4208984,0,2.0908203,1.0712891,2.0908203,2.2871094,0,1.2558594-.8554688,2.3994141-2.2666016,2.3994141-1.6992188,0-2.3896484-1.4316406-2.3896484-3.5117188ZM367.0307931,614.0589229c0-.8955078-.3291016-1.6162109-1.2460938-1.6162109-.5458984,0-1.0917969.2978516-1.4726562.7099609.0410156,1.5654297.4326172,2.4726562,1.4111328,2.4726562.8955078,0,1.3076172-.7626953,1.3076172-1.5664062Z"/>
    <path class="cls-1" d="M368.8628243,615.6038448c1.4316406-1.1943359,3.1201172-2.7802734,3.1201172-4.3564453,0-.8652344-.390625-1.4316406-1.2460938-1.4316406-.5351562,0-1.0292969.2060547-1.4931641.5458984l-.3808594-.6279297c.5869141-.453125,1.2558594-.6796875,1.9570312-.6796875,1.2978516,0,2.1318359.8955078,2.1318359,2.1835938,0,1.5859375-1.6484375,3.2744141-2.8535156,4.2744141h2.9052734v.7617188h-4.0478516l-.0927734-.6699219Z"/>
  </g>
  <g>
    <path class="cls-1" d="M337.7680978,433.7698604h-.7314453v-.7617188h.8134766l.1445312-1.4628906h-.7314453v-.7626953h.8134766l.2060547-1.9873047h.8134766l-.2060547,1.9873047h1.2363281l.2060547-1.9873047h.8027344l-.2060547,1.9873047h.7216797v.7626953h-.8037109l-.1445312,1.4628906h.7216797v.7617188h-.8037109l-.1953125,1.9775391h-.8144531l.2060547-1.9775391h-1.2353516l-.2060547,1.9775391h-.8037109l.1962891-1.9775391ZM339.8891915,433.0081417l.1542969-1.4628906h-1.2353516l-.1542969,1.4628906h1.2353516Z"/>
    <path class="cls-1" d="M342.4419259,433.6155636l2.8730469-4.9746094h1.1748047v4.8408203h.9785156v.7519531h-.9785156v1.5136719l-.9169922.1132812v-1.6269531h-3.0078125l-.1230469-.6181641ZM345.5727853,433.4817745v-3.8115234l-2.2138672,3.8115234h2.2138672Z"/>
    <path class="cls-1" d="M349.6499337,432.0804073c-.6181641-.3496094-1.1328125-.8232422-1.1328125-1.7402344,0-1.0712891.8447266-1.8125,2.0595703-1.8125,1.2255859,0,2.0498047.7412109,2.0498047,1.8125,0,.90625-.4941406,1.359375-1.1123047,1.6787109.7207031.3505859,1.359375.8447266,1.359375,1.875,0,1.2353516-1.0712891,1.9667969-2.296875,1.9667969-1.2353516,0-2.296875-.7314453-2.296875-1.9667969,0-1.0205078.6386719-1.4736328,1.3701172-1.8134766ZM350.5766915,435.098962c.8037109,0,1.3291016-.4638672,1.3291016-1.2050781,0-.7724609-.6796875-1.0917969-1.4316406-1.421875-.6796875.2880859-1.2460938.6386719-1.2460938,1.421875,0,.7412109.5351562,1.2050781,1.3486328,1.2050781ZM351.6792306,430.3401729c0-.6591797-.453125-1.0507812-1.1025391-1.0507812-.6484375,0-1.0917969.3916016-1.0917969,1.0507812,0,.6796875.5361328.9990234,1.1748047,1.2871094.5664062-.2783203,1.0195312-.6181641,1.0195312-1.2871094Z"/>
    <path class="cls-1" d="M353.9018868,434.6350948c.453125.2373047,1.0302734.4638672,1.5654297.4638672,1.1748047,0,1.5966797-.8037109,1.5966797-1.6796875,0-.7001953-.4013672-1.4414062-1.3701172-1.4414062-.4111328,0-.7509766.0927734-1.1425781.2988281l-.4326172-.3818359.1337891-3.2539062h3.5332031l-.1132812.7617188h-2.6269531l-.0820312,1.9882812c.2675781-.1035156.5761719-.1650391.9472656-.1650391,1.359375,0,2.1220703,1.0195312,2.1220703,2.1318359,0,1.3183594-.8759766,2.5029297-2.5546875,2.5029297-.6699219,0-1.390625-.2578125-1.8535156-.5351562l.2773438-.6904297Z"/>
    <path class="cls-1" d="M359.5141915,434.8304073c.3916016.1757812.7421875.2685547,1.1953125.2685547,1.2050781,0,1.7714844-1.0712891,1.8642578-2.5654297-.3505859.3613281-.9472656.6796875-1.5761719.6796875-1.4208984,0-2.0908203-1.0703125-2.0908203-2.2861328,0-1.2568359.8554688-2.3994141,2.265625-2.3994141,1.7001953,0,2.3896484,1.4316406,2.3896484,3.5117188,0,2.1015625-.90625,3.8212891-2.8427734,3.8212891-.5458984,0-1.0400391-.1337891-1.4726562-.3398438l.2675781-.6904297ZM362.5835275,431.7610714c-.0410156-1.5654297-.4326172-2.4716797-1.4003906-2.4716797-.8964844,0-1.3076172.7626953-1.3076172,1.5654297,0,.8964844.3193359,1.6171875,1.2460938,1.6171875.5458984,0,1.0917969-.2988281,1.4619141-.7109375Z"/>
    <path class="cls-1" d="M365.9809884,432.0804073c-.6181641-.3496094-1.1328125-.8232422-1.1328125-1.7402344,0-1.0712891.8447266-1.8125,2.0595703-1.8125,1.2255859,0,2.0498047.7412109,2.0498047,1.8125,0,.90625-.4941406,1.359375-1.1123047,1.6787109.7207031.3505859,1.359375.8447266,1.359375,1.875,0,1.2353516-1.0712891,1.9667969-2.296875,1.9667969-1.2353516,0-2.296875-.7314453-2.296875-1.9667969,0-1.0205078.6386719-1.4736328,1.3701172-1.8134766ZM366.9077462,435.098962c.8037109,0,1.3291016-.4638672,1.3291016-1.2050781,0-.7724609-.6796875-1.0917969-1.4316406-1.421875-.6796875.2880859-1.2460938.6386719-1.2460938,1.421875,0,.7412109.5351562,1.2050781,1.3486328,1.2050781ZM368.0102853,430.3401729c0-.6591797-.453125-1.0507812-1.1025391-1.0507812-.6484375,0-1.0917969.3916016-1.0917969,1.0507812,0,.6796875.5361328.9990234,1.1748047,1.2871094.5664062-.2783203,1.0195312-.6181641,1.0195312-1.2871094Z"/>
    <path class="cls-1" d="M372.0464181,432.8431026l1.0917969-.0517578v-.453125c0-.7519531-.2578125-1.1123047-.9990234-1.1123047-.4228516,0-.9169922.1650391-1.2880859.3603516l-.3291016-.6591797c.4326172-.2373047,1.0087891-.4638672,1.6376953-.4638672,1.2353516,0,1.8847656.7011719,1.8847656,1.8857422v3.3984375h-.7832031l-.0410156-.4941406h-.0410156c-.2988281.3496094-.8037109.6074219-1.390625.6074219-.9375,0-1.5761719-.6386719-1.5761719-1.5244141,0-.9882812.8857422-1.4414062,1.8339844-1.4931641ZM371.9536446,435.1087276c.4326172,0,.8652344-.2265625,1.1845703-.5146484v-1.1748047l-.9482422.0517578c-.7099609.03125-1.0087891.3505859-1.0087891.8554688,0,.421875.2675781.7822266.7724609.7822266Z"/>
  </g>
  <g>
    <path class="cls-1" d="M337.2827462,316.4534542h-.7314453v-.7617188h.8134766l.1445312-1.4628906h-.7314453v-.7626953h.8134766l.2060547-1.9873047h.8134766l-.2060547,1.9873047h1.2363281l.2060547-1.9873047h.8027344l-.2060547,1.9873047h.7216797v.7626953h-.8037109l-.1445312,1.4628906h.7216797v.7617188h-.8037109l-.1953125,1.9775391h-.8144531l.2060547-1.9775391h-1.2353516l-.2060547,1.9775391h-.8037109l.1962891-1.9775391ZM339.40384,315.6917354l.1542969-1.4628906h-1.2353516l-.1542969,1.4628906h1.2353516Z"/>
    <path class="cls-1" d="M344.5825509,313.1468136c.4951172,0,.9482422.1240234,1.4423828.3710938l-.2988281.6796875c-.3916016-.1855469-.7314453-.2880859-1.1435547-.2880859-1.0292969,0-1.4619141.875-1.4619141,1.9462891,0,1.1025391.4326172,1.9267578,1.4003906,1.9267578.4433594,0,.8339844-.1132812,1.2978516-.3095703l.2675781.7109375c-.5556641.2470703-1.0302734.3603516-1.5859375.3603516-1.6689453,0-2.3486328-1.2773438-2.3486328-2.6982422,0-1.421875.7724609-2.6992188,2.4306641-2.6992188Z"/>
    <path class="cls-1" d="M347.0737618,311.0354854l.9169922-.2265625v2.8945312h.0205078c.2880859-.3193359.7832031-.5566406,1.2255859-.5566406,1.4726562,0,1.9775391,1.4013672,1.9775391,2.6992188s-.6894531,2.6982422-2.3173828,2.6982422c-.6796875,0-1.4111328-.2265625-1.8232422-.484375v-7.0244141ZM348.8764962,317.7825558c.9472656,0,1.3798828-.8857422,1.3798828-1.9365234,0-1.0712891-.2773438-1.9365234-1.1220703-1.9365234-.4951172,0-.90625.3193359-1.1435547.5869141v3.1005859c.2578125.1230469.6074219.1855469.8857422.1855469Z"/>
    <path class="cls-1" d="M352.7886056,317.5140011c.3916016.1757812.7421875.2685547,1.1953125.2685547,1.2050781,0,1.7714844-1.0712891,1.8642578-2.5654297-.3505859.3613281-.9472656.6796875-1.5761719.6796875-1.4208984,0-2.0908203-1.0703125-2.0908203-2.2861328,0-1.2568359.8554688-2.3994141,2.265625-2.3994141,1.7001953,0,2.3896484,1.4316406,2.3896484,3.5117188,0,2.1015625-.90625,3.8212891-2.8427734,3.8212891-.5458984,0-1.0400391-.1337891-1.4726562-.3398438l.2675781-.6904297ZM355.8579415,314.4446651c-.0410156-1.5654297-.4326172-2.4716797-1.4003906-2.4716797-.8964844,0-1.3076172.7626953-1.3076172,1.5654297,0,.8964844.3193359,1.6171875,1.2460938,1.6171875.5458984,0,1.0917969-.2988281,1.4619141-.7109375Z"/>
    <path class="cls-1" d="M359.6987618,315.5266964l1.0917969-.0517578v-.453125c0-.7519531-.2578125-1.1123047-.9990234-1.1123047-.4228516,0-.9169922.1650391-1.2880859.3603516l-.3291016-.6591797c.4326172-.2373047,1.0087891-.4638672,1.6376953-.4638672,1.2353516,0,1.8847656.7011719,1.8847656,1.8857422v3.3984375h-.7832031l-.0410156-.4941406h-.0410156c-.2988281.3496094-.8037109.6074219-1.390625.6074219-.9375,0-1.5761719-.6386719-1.5761719-1.5244141,0-.9882812.8857422-1.4414062,1.8339844-1.4931641ZM359.6059884,317.7923214c.4326172,0,.8652344-.2265625,1.1845703-.5146484v-1.1748047l-.9482422.0517578c-.7099609.03125-1.0087891.3505859-1.0087891.8554688,0,.421875.2675781.7822266.7724609.7822266Z"/>
    <path class="cls-1" d="M365.3305978,313.1468136c.4951172,0,.9482422.1240234,1.4423828.3710938l-.2988281.6796875c-.3916016-.1855469-.7314453-.2880859-1.1435547-.2880859-1.0292969,0-1.4619141.875-1.4619141,1.9462891,0,1.1025391.4326172,1.9267578,1.4003906,1.9267578.4433594,0,.8339844-.1132812,1.2978516-.3095703l.2675781.7109375c-.5556641.2470703-1.0302734.3603516-1.5859375.3603516-1.6689453,0-2.3486328-1.2773438-2.3486328-2.6982422,0-1.421875.7724609-2.6992188,2.4306641-2.6992188Z"/>
    <path class="cls-1" d="M367.5952462,315.0325558c0-2.1015625.8144531-3.8212891,2.75-3.8212891.5458984,0,1.0410156.1337891,1.4736328.3398438l-.2685547.6894531c-.390625-.1748047-.7412109-.2675781-1.1943359-.2675781-1.2050781,0-1.6894531,1.0712891-1.7822266,2.5546875.3603516-.3603516.9580078-.6699219,1.5869141-.6699219,1.4208984,0,2.0908203,1.0712891,2.0908203,2.2871094,0,1.2558594-.8554688,2.3994141-2.2666016,2.3994141-1.6992188,0-2.3896484-1.4316406-2.3896484-3.5117188ZM371.2827462,316.2161495c0-.8955078-.3291016-1.6162109-1.2460938-1.6162109-.5458984,0-1.0917969.2978516-1.4726562.7099609.0410156,1.5654297.4326172,2.4726562,1.4111328,2.4726562.8955078,0,1.3076172-.7626953,1.3076172-1.5664062Z"/>
  </g>
  <g>
    <path class="cls-8" d="M337.9936837,268.8221065l.2675781-2.0185547h-.8447266v-.6079102h.9375l.1953125-1.4931641h-.8857422v-.6079102h.9785156l.2685547-1.9672852h.5966797l-.2568359,1.9672852h1.0703125l.2685547-1.9672852h.6074219l-.2578125,1.9672852h.8447266v.6079102h-.9375l-.1855469,1.4931641h.8867188v.6079102h-.9785156l-.2685547,2.0185547h-.6171875l.2675781-2.0185547h-1.0712891l-.2675781,2.0185547h-.6181641ZM340.0434884,266.1956417l.1953125-1.4931641h-1.0712891l-.1953125,1.4931641h1.0712891Z"/>
    <path class="cls-8" d="M342.99759,268.8221065v-4.2949219h-.7001953v-.6899414h.7001953v-.2373047c0-.7001953.1542969-1.3388672.5761719-1.7402344.3408203-.3295898.7939453-.4638672,1.2158203-.4638672.3193359,0,.5976562.0722656.7724609.1445312l-.1240234.7001953c-.1337891-.0615234-.3183594-.1132812-.5761719-.1132812-.7724609,0-.96875.6796875-.96875,1.4418945v.2680664h1.2050781v.6899414h-1.2050781v4.2949219h-.8955078Z"/>
    <path class="cls-8" d="M349.9692696,262.1272823v.5976562l-2.9140625,6.097168h-.9375l2.9042969-5.9223633v-.0205078h-3.2753906v-.7519531h4.2226562Z"/>
    <path class="cls-8" d="M351.6987618,266.4944698c.0205078,1.2255859.8027344,1.7304688,1.7099609,1.7304688.6484375,0,1.0400391-.1132812,1.3798828-.2578125l.1542969.6489258c-.3193359.144043-.8652344.309082-1.6582031.309082-1.5351562,0-2.4511719-1.0092773-2.4511719-2.5131836s.8857422-2.6879883,2.3378906-2.6879883c1.6269531,0,2.0595703,1.4316406,2.0595703,2.3481445,0,.1855469-.0205078.3295898-.0302734.4223633h-3.5019531ZM354.3559884,265.845544c.0097656-.5766602-.2373047-1.4731445-1.2568359-1.4731445-.9169922,0-1.3183594.8447266-1.390625,1.4731445h2.6474609Z"/>
    <path class="cls-8" d="M355.9809884,267.1228878c0-.8447266.5048828-1.4423828,1.3291016-1.7924805l-.0107422-.0307617c-.7412109-.3500977-1.0605469-.9272461-1.0605469-1.5039062,0-1.0605469.8955078-1.7817383,2.0703125-1.7817383,1.2978516,0,1.9462891.8134766,1.9462891,1.6479492,0,.5664062-.2783203,1.1743164-1.1015625,1.5654297v.03125c.8339844.3295898,1.3486328.9165039,1.3486328,1.7299805,0,1.1640625-.9990234,1.9467773-2.2763672,1.9467773-1.4003906,0-2.2451172-.8344727-2.2451172-1.8125ZM359.5864571,267.0813839c0-.8134766-.5664062-1.2050781-1.4736328-1.4624023-.7822266.2265625-1.2050781.7416992-1.2050781,1.3798828-.0302734.6801758.484375,1.2773438,1.3398438,1.2773438.8134766,0,1.3388672-.5048828,1.3388672-1.1948242ZM357.0932931,263.7342159c0,.6694336.5048828,1.0297852,1.2773438,1.2358398.5771484-.1958008,1.0195312-.6079102,1.0195312-1.215332,0-.5356445-.3193359-1.0917969-1.1328125-1.0917969-.7519531,0-1.1640625.4941406-1.1640625,1.0712891Z"/>
    <path class="cls-8" d="M361.7270821,268.8221065v-4.2949219h-.7001953v-.6899414h.7001953v-.2373047c0-.7001953.1542969-1.3388672.5761719-1.7402344.3408203-.3295898.7939453-.4638672,1.2158203-.4638672.3193359,0,.5976562.0722656.7724609.1445312l-.1240234.7001953c-.1337891-.0615234-.3193359-.1132812-.5761719-.1132812-.7724609,0-.96875.6796875-.96875,1.4418945v.2680664h1.2050781v.6899414h-1.2050781v4.2949219h-.8955078Z"/>
    <path class="cls-8" d="M364.3530587,268.8221065v-.5561523l.7099609-.6899414c1.7099609-1.6274414,2.4824219-2.4926758,2.4931641-3.5019531,0-.6796875-.3300781-1.3081055-1.3291016-1.3081055-.6074219,0-1.1123047.309082-1.4208984.5664062l-.2890625-.6386719c.4638672-.3911133,1.1230469-.6796875,1.8955078-.6796875,1.4423828,0,2.0498047.9887695,2.0498047,1.9467773,0,1.2358398-.8964844,2.2348633-2.3076172,3.5942383l-.5351562.4946289v.0205078h3.0078125v.7519531h-4.2744141Z"/>
  </g>
</svg>